<svg width="201" height="48" viewBox="0 0 201 48" fill="none" xmlns="http://www.w3.org/2000/svg">
<g clip-path="url(#clip0_125_1193)">
<path d="M172.648 47.8889C157.3 47.8889 144.816 37.85 144.816 24.3384C144.816 10.8267 157.3 0.777832 172.648 0.777832" fill="url(#paint0_radial_125_1193)"/>
<path d="M172.656 0.777832C188.004 0.777832 200.498 10.8168 200.498 24.3284C200.498 37.84 188.004 47.8789 172.656 47.8789" fill="url(#paint1_radial_125_1193)"/>
<path d="M198.644 24.2985C198.644 36.9719 187.667 47.2503 172.649 47.2503C157.63 47.2503 146.703 36.9818 146.703 24.2985C146.703 11.6151 157.68 1.34668 172.649 1.34668C187.617 1.34668 198.644 11.6351 198.644 24.2985Z" fill="url(#paint2_radial_125_1193)"/>
<path d="M176.229 20.2469C176.229 20.4321 176.155 20.6098 176.024 20.7408C175.893 20.8718 175.716 20.9454 175.53 20.9454H173.724C173.632 20.9481 173.54 20.9322 173.455 20.8988C173.369 20.8654 173.29 20.8151 173.224 20.7509C173.158 20.6867 173.106 20.6099 173.07 20.525C173.034 20.4402 173.016 20.349 173.016 20.2568V18.4307C173.014 18.3389 173.031 18.2478 173.065 18.1626C173.099 18.0773 173.149 17.9996 173.213 17.9338C173.277 17.868 173.353 17.8155 173.438 17.7791C173.522 17.7428 173.613 17.7235 173.704 17.7222H175.53C175.716 17.7222 175.893 17.7958 176.024 17.9268C176.155 18.0578 176.229 18.2354 176.229 18.4207V20.2469Z" fill="url(#paint3_radial_125_1193)"/>
<path d="M175.6 15.886C175.6 16.0342 175.541 16.1764 175.436 16.2812C175.332 16.386 175.189 16.4448 175.041 16.4448H173.604C173.53 16.4462 173.456 16.4327 173.387 16.4052C173.318 16.3777 173.256 16.3367 173.203 16.2847C173.15 16.2327 173.108 16.1706 173.079 16.1022C173.05 16.0337 173.035 15.9602 173.035 15.886V14.439C173.035 14.3648 173.05 14.2913 173.079 14.2229C173.108 14.1544 173.15 14.0923 173.203 14.0403C173.256 13.9883 173.318 13.9473 173.387 13.9199C173.456 13.8924 173.53 13.8789 173.604 13.8802H175.041C175.189 13.8802 175.332 13.9391 175.436 14.0439C175.541 14.1487 175.6 14.2908 175.6 14.439V15.886Z" fill="url(#paint4_radial_125_1193)"/>
<path d="M180.039 18.3608C180.034 18.5144 179.97 18.6602 179.861 18.7679C179.751 18.8756 179.604 18.9371 179.451 18.9396H177.954C177.8 18.9396 177.653 18.8786 177.545 18.7701C177.436 18.6615 177.375 18.5143 177.375 18.3608V16.8639C177.375 16.7104 177.436 16.5632 177.545 16.4547C177.653 16.3461 177.8 16.2852 177.954 16.2852H179.451C179.605 16.2851 179.753 16.3458 179.863 16.4541C179.974 16.5623 180.037 16.7095 180.039 16.8639V18.3608Z" fill="url(#paint5_radial_125_1193)"/>
<path d="M178.682 14.3892C178.682 14.5294 178.626 14.664 178.527 14.7631C178.428 14.8623 178.293 14.918 178.153 14.918H176.816C176.678 14.918 176.546 14.8634 176.449 14.7661C176.352 14.6687 176.297 14.5368 176.297 14.3991V13.052C176.297 12.9161 176.35 12.7856 176.445 12.6885C176.54 12.5915 176.67 12.5357 176.806 12.5331H178.123C178.192 12.5317 178.261 12.5442 178.325 12.5697C178.389 12.5951 178.447 12.6331 178.496 12.6815C178.546 12.7298 178.585 12.7874 178.612 12.8511C178.638 12.9147 178.652 12.983 178.652 13.052L178.682 14.3892Z" fill="url(#paint6_radial_125_1193)"/>
<path d="M174.75 9.33979C174.75 9.44036 174.71 9.53681 174.639 9.60792C174.568 9.67904 174.472 9.71899 174.371 9.71899H173.373C173.324 9.71901 173.275 9.70914 173.23 9.68996C173.184 9.67078 173.143 9.64269 173.109 9.60734C173.074 9.57199 173.047 9.5301 173.029 9.48415C173.011 9.43819 173.003 9.38911 173.004 9.33979V8.34188C173.004 8.29339 173.014 8.24538 173.032 8.20058C173.051 8.15579 173.078 8.11509 173.112 8.0808C173.146 8.04651 173.187 8.01932 173.232 8.00076C173.277 7.98221 173.325 7.97266 173.373 7.97266H174.371C174.47 7.97262 174.565 8.0112 174.636 8.08017C174.707 8.14914 174.748 8.24305 174.75 8.34188V9.33979Z" fill="url(#paint7_radial_125_1193)"/>
<path d="M188.225 18.9696C188.225 19.0596 188.189 19.1459 188.126 19.2095C188.062 19.2731 187.976 19.3089 187.886 19.3089H186.998C186.907 19.3089 186.819 19.2735 186.754 19.2101C186.689 19.1468 186.651 19.0605 186.648 18.9696V18.0814C186.648 17.9888 186.685 17.9 186.751 17.8345C186.816 17.769 186.905 17.7322 186.998 17.7322H187.886C187.977 17.7348 188.063 17.7727 188.126 17.8379C188.19 17.9032 188.225 17.9905 188.225 18.0814V18.9696Z" fill="url(#paint8_radial_125_1193)"/>
<path d="M183.412 11.6249C183.412 11.6717 183.403 11.7179 183.385 11.7609C183.366 11.804 183.34 11.8429 183.306 11.8755C183.273 11.9081 183.233 11.9336 183.19 11.9505C183.146 11.9675 183.1 11.9755 183.053 11.9742H182.115C182.022 11.9742 181.933 11.9374 181.868 11.8719C181.802 11.8064 181.766 11.7176 181.766 11.6249V10.7568C181.771 10.665 181.811 10.5787 181.878 10.5156C181.944 10.4524 182.033 10.4173 182.125 10.4175H183.113C183.205 10.4175 183.294 10.4543 183.36 10.5198C183.425 10.5853 183.462 10.6741 183.462 10.7667L183.412 11.6249Z" fill="url(#paint9_radial_125_1193)"/>
<path d="M185.57 10.9365C185.567 11.0151 185.535 11.0898 185.479 11.1454C185.424 11.201 185.349 11.2333 185.27 11.2358H184.452C184.371 11.2337 184.294 11.2021 184.236 11.1469C184.177 11.0917 184.14 11.0168 184.133 10.9365V10.1282C184.135 10.0443 184.17 9.96449 184.229 9.90514C184.288 9.84579 184.368 9.81134 184.452 9.80884H185.26C185.34 9.81117 185.416 9.84317 185.473 9.89856C185.53 9.95395 185.565 10.0287 185.57 10.1082V10.9365Z" fill="url(#paint10_radial_125_1193)"/>
<path d="M185.858 17.8719C185.858 17.9619 185.822 18.0482 185.759 18.1118C185.695 18.1754 185.609 18.2112 185.519 18.2112H184.611C184.522 18.2086 184.439 18.1717 184.377 18.1083C184.316 18.045 184.281 17.9602 184.281 17.8719V16.9838C184.279 16.8928 184.312 16.8043 184.373 16.7372C184.435 16.6701 184.52 16.6297 184.611 16.6245H185.509C185.555 16.6245 185.6 16.6335 185.642 16.6511C185.685 16.6687 185.723 16.6944 185.756 16.7268C185.788 16.7592 185.814 16.7977 185.832 16.8401C185.849 16.8825 185.858 16.9279 185.858 16.9738V17.8719Z" fill="url(#paint11_radial_125_1193)"/>
<path d="M174.353 6.84501C174.356 6.8842 174.35 6.92355 174.337 6.96049C174.324 6.99742 174.303 7.03112 174.275 7.05937C174.248 7.08762 174.215 7.1098 174.178 7.12445C174.142 7.13909 174.103 7.14589 174.064 7.14438H173.295C173.257 7.14309 173.22 7.13433 173.185 7.11858C173.151 7.10283 173.119 7.08042 173.093 7.05261C173.067 7.02481 173.047 6.99216 173.034 6.95654C173.021 6.92092 173.014 6.88302 173.016 6.84501V6.0866C173.014 6.04859 173.021 6.01069 173.034 5.97507C173.047 5.93945 173.067 5.9068 173.093 5.879C173.119 5.8512 173.151 5.82878 173.185 5.81303C173.22 5.79729 173.257 5.78852 173.295 5.78723H174.064C174.141 5.78982 174.215 5.8225 174.269 5.87837C174.323 5.93423 174.353 6.0089 174.353 6.0866V6.84501Z" fill="url(#paint12_radial_125_1193)"/>
<path d="M187.703 10.9165C187.703 10.988 187.674 11.0565 187.624 11.1071C187.573 11.1576 187.505 11.186 187.433 11.186H186.725C186.654 11.1816 186.587 11.1521 186.535 11.1027C186.484 11.0533 186.452 10.9873 186.445 10.9165V10.208C186.45 10.1365 186.482 10.0693 186.533 10.0195C186.585 9.96974 186.653 9.9409 186.725 9.9386H187.433C187.504 9.94108 187.571 9.97026 187.621 10.0203C187.671 10.0703 187.7 10.1374 187.703 10.208V10.9165Z" fill="url(#paint13_radial_125_1193)"/>
<path d="M190.1 20.4664C190.1 20.5014 190.093 20.5359 190.08 20.5681C190.066 20.6002 190.046 20.6293 190.021 20.6535C189.996 20.6778 189.966 20.6966 189.933 20.7091C189.901 20.7215 189.866 20.7272 189.831 20.7259H189.142C189.075 20.7259 189.011 20.7 188.962 20.6535C188.914 20.6069 188.885 20.5435 188.883 20.4764V19.738C188.883 19.6692 188.91 19.6032 188.959 19.5545C189.007 19.5059 189.073 19.4785 189.142 19.4785H189.831C189.901 19.4785 189.968 19.5055 190.018 19.5539C190.068 19.6023 190.098 19.6683 190.1 19.738V20.4664Z" fill="url(#paint14_radial_125_1193)"/>
<path d="M189.562 11.2359C189.562 11.2845 189.543 11.3312 189.51 11.3665C189.476 11.4018 189.431 11.4229 189.382 11.4255H188.883C188.832 11.4255 188.783 11.4059 188.745 11.3706C188.708 11.3353 188.686 11.287 188.684 11.2359V10.7569C188.688 10.7065 188.711 10.6595 188.748 10.6247C188.785 10.5898 188.833 10.5694 188.883 10.5673H189.382C189.431 10.5698 189.476 10.5909 189.51 10.6262C189.543 10.6615 189.562 10.7083 189.562 10.7569V11.2359Z" fill="url(#paint15_radial_125_1193)"/>
<path d="M191.096 22.1929C191.094 22.2434 191.074 22.2915 191.039 22.3282C191.004 22.3648 190.957 22.3877 190.907 22.3924H190.428C190.378 22.39 190.332 22.3693 190.296 22.3342C190.261 22.2992 190.241 22.2523 190.238 22.2028V21.7338C190.241 21.6853 190.262 21.6396 190.297 21.6062C190.333 21.5727 190.379 21.5541 190.428 21.5542H190.907C190.957 21.554 191.004 21.5722 191.041 21.6054C191.078 21.6386 191.101 21.6844 191.106 21.7338L191.096 22.1929Z" fill="url(#paint16_radial_125_1193)"/>
<path d="M175.132 12.3335C175.132 12.4588 175.083 12.5792 174.995 12.6687C174.908 12.7583 174.788 12.8099 174.663 12.8125H173.456C173.332 12.8126 173.213 12.7649 173.124 12.6793C173.034 12.5938 172.982 12.477 172.977 12.3535V11.126C172.982 11.0042 173.033 10.8889 173.12 10.8036C173.207 10.7183 173.324 10.6694 173.446 10.667H174.663C174.784 10.6695 174.899 10.7187 174.985 10.8043C175.07 10.8898 175.12 11.0051 175.122 11.126L175.132 12.3335Z" fill="url(#paint17_radial_125_1193)"/>
<path d="M179.621 22.1429C179.627 22.2858 179.579 22.4257 179.487 22.5348C179.394 22.644 179.264 22.7142 179.122 22.7317H177.705C177.559 22.7291 177.419 22.669 177.316 22.5645C177.214 22.46 177.156 22.3193 177.156 22.1728V20.7359C177.159 20.5911 177.217 20.453 177.32 20.3506C177.422 20.2482 177.56 20.1896 177.705 20.187H179.122C179.266 20.192 179.403 20.2514 179.505 20.3533C179.607 20.4551 179.666 20.5919 179.671 20.7359L179.621 22.1429Z" fill="url(#paint18_radial_125_1193)"/>
<path d="M184.113 26.4339C184.113 26.5302 184.076 26.6226 184.008 26.6916C183.941 26.7605 183.85 26.8006 183.754 26.8032H182.756C182.658 26.8032 182.564 26.7643 182.495 26.695C182.426 26.6258 182.387 26.5319 182.387 26.4339V25.436C182.389 25.3399 182.429 25.2485 182.498 25.1814C182.567 25.1143 182.66 25.0768 182.756 25.0768H183.754C183.802 25.0755 183.85 25.0838 183.894 25.1012C183.939 25.1187 183.98 25.1449 184.014 25.1784C184.049 25.2119 184.076 25.252 184.095 25.2962C184.113 25.3405 184.123 25.388 184.123 25.436L184.113 26.4339Z" fill="url(#paint19_radial_125_1193)"/>
<path d="M184.87 28.7989C184.867 28.8732 184.838 28.944 184.786 28.9975C184.734 29.051 184.665 29.0833 184.59 29.0883H183.842C183.767 29.0857 183.696 29.0541 183.644 29.0001C183.592 28.9461 183.562 28.8739 183.563 28.7989V28.0604C183.563 27.9863 183.592 27.9153 183.644 27.8629C183.697 27.8105 183.768 27.781 183.842 27.781H184.58C184.617 27.7783 184.655 27.7832 184.69 27.7955C184.725 27.8078 184.757 27.8272 184.784 27.8525C184.811 27.8778 184.833 27.9085 184.848 27.9425C184.862 27.9766 184.87 28.0133 184.87 28.0504V28.7989Z" fill="url(#paint20_radial_125_1193)"/>
<path d="M185.112 30.8247C185.112 30.8777 185.091 30.9284 185.053 30.9658C185.016 31.0033 184.965 31.0243 184.912 31.0243H184.383C184.357 31.0257 184.332 31.0218 184.308 31.0128C184.283 31.0039 184.261 30.9902 184.243 30.9724C184.224 30.9547 184.209 30.9333 184.199 30.9096C184.189 30.886 184.184 30.8605 184.184 30.8347V30.3058C184.186 30.2546 184.208 30.2064 184.245 30.1711C184.283 30.1358 184.332 30.1161 184.383 30.1162H184.912C184.963 30.1184 185.011 30.1388 185.047 30.1736C185.084 30.2085 185.107 30.2554 185.112 30.3058V30.8247Z" fill="url(#paint21_radial_125_1193)"/>
<path d="M179.68 45.2843C179.68 45.3399 179.658 45.3932 179.619 45.4325C179.58 45.4718 179.526 45.4938 179.471 45.4938H178.952C178.898 45.4893 178.847 45.4658 178.809 45.4274C178.77 45.3891 178.747 45.3383 178.742 45.2843V44.7654C178.747 44.7124 178.771 44.6629 178.809 44.6262C178.848 44.5895 178.899 44.568 178.952 44.5658H179.471C179.525 44.5657 179.576 44.5864 179.615 44.6236C179.654 44.6608 179.678 44.7115 179.68 44.7654V45.2843Z" fill="url(#paint22_radial_125_1193)"/>
<path d="M182.595 23.9192C182.595 24.0383 182.548 24.1525 182.464 24.2367C182.379 24.3209 182.265 24.3682 182.146 24.3682H180.979C180.92 24.3695 180.861 24.3592 180.806 24.3379C180.751 24.3165 180.701 24.2846 180.658 24.2438C180.615 24.203 180.581 24.1542 180.558 24.1002C180.534 24.0463 180.521 23.9881 180.52 23.9291V22.7317C180.52 22.6126 180.567 22.4983 180.651 22.4141C180.735 22.3299 180.85 22.2826 180.969 22.2826H182.116C182.235 22.2826 182.349 22.3299 182.434 22.4141C182.518 22.4983 182.565 22.6126 182.565 22.7317L182.595 23.9192Z" fill="url(#paint23_radial_125_1193)"/>
<path d="M183.116 17.5027C183.116 17.5585 183.104 17.6139 183.083 17.6654C183.061 17.7169 183.029 17.7636 182.989 17.8026C182.949 17.8417 182.902 17.8723 182.85 17.8928C182.798 17.9132 182.742 17.9231 182.687 17.9218H181.599C181.544 17.9231 181.49 17.9135 181.439 17.8935C181.388 17.8736 181.342 17.8437 181.303 17.8055C181.264 17.7674 181.233 17.7218 181.212 17.6715C181.191 17.6212 181.18 17.5672 181.18 17.5126V16.4149C181.18 16.3028 181.223 16.1952 181.302 16.115C181.38 16.0348 181.487 15.9884 181.599 15.9858H182.687C182.8 15.9858 182.909 16.031 182.99 16.1115C183.07 16.192 183.116 16.3011 183.116 16.4149V17.5027Z" fill="url(#paint24_radial_125_1193)"/>
<path d="M181.199 12.8325C181.199 12.9463 181.153 13.0555 181.073 13.1359C180.992 13.2164 180.883 13.2616 180.769 13.2616H179.652C179.595 13.2616 179.54 13.2505 179.488 13.229C179.435 13.2074 179.388 13.1758 179.348 13.1359C179.308 13.0961 179.277 13.0488 179.255 12.9967C179.234 12.9447 179.223 12.8889 179.223 12.8325V11.7548C179.223 11.6984 179.234 11.6426 179.255 11.5906C179.277 11.5385 179.308 11.4912 179.348 11.4514C179.388 11.4115 179.435 11.3799 179.488 11.3583C179.54 11.3368 179.595 11.3257 179.652 11.3257H180.769C180.883 11.3257 180.992 11.3709 181.073 11.4514C181.153 11.5318 181.199 11.641 181.199 11.7548V12.8325Z" fill="url(#paint25_radial_125_1193)"/>
<path d="M169.612 20.8657L170.241 24.5779L169.603 24.3783L170.341 27.9807L169.742 27.8111L170.491 31.194L170.042 31.0742L170.75 34.5469L170.311 34.4771L171 37.9099H170.59L171.279 41.4824L170.9 41.3726L171.439 44.6158L165.731 45.4241H172.217V2.44434C171.827 3.99223 171.709 5.59606 171.868 7.18438C171.868 7.37398 171.169 5.47797 170.87 4.53994C170.953 5.94539 171.266 7.32763 171.798 8.63134C171.164 7.69864 170.609 6.71385 170.141 5.68753C170.451 7.20083 170.957 8.66698 171.648 10.0484C170.929 9.08723 170.263 8.08786 169.652 7.05465C170.072 8.52389 170.701 9.92527 171.518 11.2159C170.689 10.3439 169.972 9.37175 169.383 8.32199C169.383 9.3199 171.489 12.6928 171.489 12.8225C170.607 11.8818 169.821 10.8555 169.143 9.75898C169.613 11.4056 170.388 12.9492 171.429 14.3094C170.547 13.3277 169.724 12.2947 168.964 11.2159C169.084 12.5631 171.129 15.6167 171.129 15.6167C169.034 12.8824 161.001 8.04258 155.512 10.9664C157.305 10.6474 159.136 10.607 160.941 10.8467C161.32 10.9265 157.867 11.2259 157.089 11.7747C158.941 11.5233 160.808 11.3966 162.677 11.3955C162.258 11.5452 159.574 11.8945 159.015 12.4833C160.876 12.1543 162.775 12.0938 164.653 12.3036C164.773 12.3535 161.04 12.5531 160.362 13.102C162.479 12.9355 164.608 13.0092 166.709 13.3215C165.711 13.4313 162.976 13.2417 161.799 13.8604C164.001 13.7518 166.208 13.9295 168.365 14.3893C167.617 14.3893 164.473 14.0899 163.276 14.7884C165.567 14.6199 167.869 14.9187 170.042 15.6666C169.333 15.5668 166.24 14.978 164.703 15.5169C166.583 15.6566 168.424 16.1261 170.141 16.904C167.996 16.3551 156.43 14.1897 154.125 22.3825C155.168 20.7318 156.524 19.3012 158.117 18.1713C156.98 19.1637 156.161 20.4686 155.762 21.9234C156.676 20.1791 158.058 18.7242 159.753 17.7223C159.753 17.7223 157.608 19.6482 157.318 21.2947C158.364 19.7388 159.79 18.4749 161.46 17.6225C160.271 18.4477 159.318 19.5691 158.695 20.8756C159.873 19.4617 161.331 18.3066 162.976 17.4828C161.923 18.3656 160.978 19.3706 160.162 20.4765C161.588 19.128 163.291 18.1064 165.152 17.4828C163.801 18.1931 162.596 19.1511 161.599 20.3068C163.346 19.1293 165.781 17.7522 168.096 17.7821C168.096 17.7821 164.363 18.78 163.246 20.0274C165.214 19.2914 167.317 18.9884 169.413 19.1393C167.667 19.6382 159.284 22.9014 160.781 31.3736C161.06 29.7558 161.46 28.1613 161.979 26.6036C162.023 27.9438 162.174 29.2785 162.428 30.5952C162.588 28.7304 162.865 26.8773 163.256 25.0469C163.243 26.4177 163.377 27.7859 163.655 29.1283C163.755 28.809 164.004 24.6876 164.493 24.0091C164.323 25.3543 164.364 26.7177 164.613 28.0506C164.823 26.7333 165.212 23.6298 165.751 22.8515C165.491 24.2902 165.491 25.7637 165.751 27.2023C165.937 25.3194 166.408 23.4756 167.148 21.7338C166.91 23.2221 166.866 24.7349 167.018 26.2344C167.178 25.8452 167.547 22.3525 168.465 20.9654C168.188 22.4184 168.114 23.9029 168.245 25.3762C168.552 23.8293 169.006 22.3155 169.603 20.8557L169.612 20.8657Z" fill="url(#paint26_radial_125_1193)"/>
<path d="M177.236 45.2344C177.234 45.3015 177.205 45.365 177.157 45.4115C177.108 45.458 177.044 45.484 176.977 45.4839H176.308C176.242 45.4839 176.178 45.4576 176.132 45.4109C176.085 45.3641 176.059 45.3006 176.059 45.2344V44.5659C176.059 44.4987 176.085 44.4342 176.131 44.3858C176.178 44.3375 176.241 44.309 176.308 44.3064H176.977C177.045 44.3064 177.111 44.3337 177.16 44.3824C177.209 44.431 177.236 44.497 177.236 44.5659V45.2344Z" fill="url(#paint27_radial_125_1193)"/>
<path d="M174.134 4.76942C174.137 4.79989 174.133 4.83059 174.124 4.85958C174.114 4.88856 174.098 4.91518 174.077 4.93773C174.057 4.96028 174.032 4.97826 174.004 4.99052C173.975 5.00278 173.945 5.00905 173.915 5.00892H173.306C173.275 5.01027 173.244 5.00533 173.215 4.9944C173.186 4.98347 173.16 4.96678 173.137 4.94533C173.115 4.92388 173.097 4.89812 173.085 4.8696C173.073 4.84109 173.066 4.8104 173.066 4.7794V4.22058C173.066 4.18913 173.073 4.15798 173.085 4.12892C173.097 4.09987 173.114 4.07347 173.137 4.05123C173.159 4.02899 173.185 4.01135 173.214 3.99931C173.243 3.98727 173.274 3.98108 173.306 3.98108H173.905C173.936 3.98105 173.966 3.9873 173.995 3.99945C174.023 4.01161 174.049 4.02941 174.071 4.05179C174.092 4.07417 174.109 4.10067 174.12 4.12968C174.131 4.15868 174.136 4.18961 174.134 4.22058V4.76942Z" fill="url(#paint28_radial_125_1193)"/>
<path d="M173.852 3.1029C173.852 3.15054 173.833 3.19623 173.799 3.22991C173.765 3.2636 173.72 3.28252 173.672 3.28252H173.203C173.155 3.28252 173.11 3.2636 173.076 3.22991C173.042 3.19623 173.023 3.15054 173.023 3.1029V2.62391C173.023 2.57627 173.042 2.53058 173.076 2.49689C173.11 2.46321 173.155 2.44428 173.203 2.44428H173.672C173.696 2.44283 173.72 2.44647 173.743 2.45499C173.765 2.4635 173.785 2.47668 173.802 2.49366C173.819 2.51064 173.832 2.53103 173.841 2.55348C173.85 2.57593 173.853 2.59994 173.852 2.62391V3.1029Z" fill="url(#paint29_radial_125_1193)"/>
<path d="M175.49 32.8704C175.49 33.0133 175.434 33.1504 175.333 33.2514C175.232 33.3525 175.094 33.4093 174.952 33.4093H173.554C173.412 33.4093 173.275 33.3525 173.173 33.2514C173.072 33.1504 173.016 33.0133 173.016 32.8704V31.4833C173.016 31.3404 173.072 31.2033 173.173 31.1023C173.275 31.0012 173.412 30.9445 173.554 30.9445H174.952C175.094 30.9445 175.232 31.0012 175.333 31.1023C175.434 31.2033 175.49 31.3404 175.49 31.4833V32.8704Z" fill="url(#paint30_radial_125_1193)"/>
<path d="M176.028 24.7275C176.028 24.8995 175.96 25.0645 175.838 25.1861C175.717 25.3078 175.552 25.3761 175.38 25.3761H173.693C173.523 25.3735 173.361 25.304 173.241 25.1826C173.122 25.0613 173.055 24.8978 173.055 24.7275V23.051C173.057 22.8814 173.125 22.7194 173.244 22.5986C173.363 22.4777 173.524 22.4075 173.693 22.4023H175.38C175.552 22.4023 175.717 22.4707 175.838 22.5923C175.96 22.714 176.028 22.879 176.028 23.051V24.7275Z" fill="url(#paint31_radial_125_1193)"/>
<path d="M175.769 29.1183C175.769 29.2745 175.707 29.4242 175.597 29.5346C175.486 29.645 175.336 29.7071 175.18 29.7071H173.653C173.496 29.7071 173.346 29.6454 173.234 29.5352C173.122 29.4251 173.057 29.2754 173.055 29.1183V27.5815C173.055 27.4244 173.116 27.2736 173.227 27.1616C173.337 27.0496 173.486 26.9854 173.643 26.9828H175.18C175.336 26.9828 175.486 27.0448 175.597 27.1552C175.707 27.2656 175.769 27.4154 175.769 27.5716V29.1183Z" fill="url(#paint32_radial_125_1193)"/>
<path d="M174.542 45.1546C174.543 45.1974 174.536 45.24 174.52 45.2799C174.505 45.3198 174.481 45.3562 174.452 45.3869C174.422 45.4176 174.386 45.4421 174.347 45.4587C174.307 45.4754 174.265 45.484 174.222 45.4839H173.384C173.298 45.484 173.216 45.4507 173.155 45.391C173.093 45.3314 173.057 45.2502 173.055 45.1646V44.3264C173.057 44.2415 173.091 44.1606 173.15 44.0996C173.209 44.0386 173.289 44.002 173.374 43.9971H174.222C174.308 43.9997 174.389 44.0355 174.449 44.097C174.508 44.1585 174.542 44.2407 174.542 44.3264V45.1546Z" fill="url(#paint33_radial_125_1193)"/>
<path d="M174.932 39.5264C174.929 39.6385 174.883 39.7451 174.802 39.8234C174.722 39.9017 174.615 39.9456 174.502 39.9455H173.435C173.325 39.9407 173.221 39.8949 173.144 39.8174C173.066 39.7398 173.021 39.636 173.016 39.5264V38.4487C173.018 38.3393 173.064 38.2352 173.142 38.1588C173.22 38.0823 173.325 38.0395 173.435 38.0396H174.502C174.613 38.0394 174.719 38.0819 174.799 38.1581C174.879 38.2343 174.926 38.3384 174.932 38.4487V39.5264Z" fill="url(#paint34_radial_125_1193)"/>
<path d="M174.662 42.5101C174.665 42.5572 174.658 42.6043 174.641 42.6485C174.625 42.6927 174.599 42.733 174.567 42.7668C174.534 42.8006 174.494 42.8272 174.45 42.8448C174.407 42.8625 174.36 42.8709 174.313 42.8694H173.385C173.291 42.8668 173.202 42.8278 173.137 42.7607C173.072 42.6936 173.035 42.6037 173.035 42.5101V41.5921C173.038 41.5002 173.076 41.4128 173.14 41.3479C173.205 41.2829 173.293 41.2453 173.385 41.2428H174.313C174.405 41.2428 174.494 41.2796 174.56 41.3451C174.625 41.4106 174.662 41.4994 174.662 41.5921V42.5101Z" fill="url(#paint35_radial_125_1193)"/>
<path d="M175.052 36.1935C175.053 36.2524 175.043 36.3111 175.021 36.3661C175 36.4211 174.968 36.4713 174.927 36.5139C174.887 36.5566 174.838 36.5907 174.784 36.6145C174.73 36.6383 174.672 36.6512 174.613 36.6525H173.445C173.325 36.6499 173.211 36.6004 173.127 36.5146C173.043 36.4288 172.996 36.3135 172.996 36.1935V35.0459C172.996 34.9268 173.043 34.8125 173.128 34.7283C173.212 34.6441 173.326 34.5968 173.445 34.5968H174.613C174.73 34.5994 174.842 34.6479 174.924 34.7318C175.006 34.8157 175.052 34.9285 175.052 35.0459V36.1935Z" fill="url(#paint36_radial_125_1193)"/>
<path d="M73.1182 18.9796H71.0026V16.7443C71.0108 16.5051 70.9241 16.2723 70.7615 16.0967C70.5989 15.921 70.3736 15.8166 70.1345 15.8063H70.0546L65.3645 15.7464V18.0416C65.374 18.1556 65.3609 18.2705 65.3259 18.3795C65.2909 18.4885 65.2347 18.5895 65.1605 18.6767C65.0863 18.7639 64.9956 18.8355 64.8936 18.8875C64.7916 18.9395 64.6803 18.9708 64.5661 18.9796H61.3629V15.1975C61.3629 14.1996 59.5667 14.2695 59.5667 14.2695V20.0773H65.3645C65.6082 20.0826 65.8507 20.0398 66.0779 19.9514C66.3051 19.863 66.5127 19.7307 66.6888 19.562C66.8648 19.3933 67.0059 19.1916 67.104 18.9684C67.2021 18.7452 67.2553 18.5049 67.2605 18.2611C67.2654 18.2113 67.2654 18.1612 67.2605 18.1114V16.7443H69.2563V19.9875H73.0483" fill="black"/>
<path d="M11.946 18.1115C11.9678 18.3559 11.9404 18.6022 11.8653 18.8358C11.7903 19.0695 11.6692 19.2857 11.5092 19.4718C11.3492 19.6579 11.1535 19.81 10.9337 19.9191C10.714 20.0282 10.4745 20.0922 10.2296 20.1073H1.05884V14.539C1.05884 14.539 2.85507 14.539 2.85507 15.467V18.8798H9.20174C9.31846 18.8722 9.43253 18.8416 9.5374 18.7898C9.64227 18.738 9.73588 18.666 9.81284 18.5779C9.8898 18.4898 9.9486 18.3874 9.98587 18.2765C10.0231 18.1657 10.0381 18.0485 10.03 17.9318V9.19019C10.03 9.19019 11.9659 9.19019 11.9659 10.2779L11.946 18.1115Z" fill="black"/>
<path d="M78.3355 13.7505C78.3355 14.0699 77.9064 14.3293 77.3875 14.3293C76.8686 14.3293 76.4495 14.0699 76.4495 13.7505C76.4495 13.4312 76.8686 13.1718 77.3875 13.1718C77.9064 13.1718 78.3355 13.3913 78.3355 13.7505Z" fill="black"/>
<path d="M62.7394 22.3027C62.7394 22.622 62.3203 22.8914 61.7914 22.8914C61.2625 22.8914 60.7935 22.632 60.7935 22.3027C60.7935 21.9734 61.2126 21.7239 61.7914 21.7239C62.3701 21.7239 62.7394 21.9734 62.7394 22.3027Z" fill="black"/>
<path d="M65.625 22.3027C65.625 22.622 65.1959 22.8914 64.6271 22.8914C64.0583 22.8914 63.6292 22.632 63.6292 22.3027C63.6292 21.9734 64.0583 21.7239 64.6271 21.7239C65.1959 21.7239 65.625 21.9734 65.625 22.3027Z" fill="black"/>
<path d="M109.034 12.563C109.034 12.8824 108.615 13.1518 108.036 13.1518C107.457 13.1518 107.098 12.8824 107.098 12.563C107.098 12.2437 107.527 11.9843 108.036 11.9843C108.545 11.9843 109.034 12.2437 109.034 12.563Z" fill="black"/>
<path d="M111.905 12.563C111.905 12.8824 111.486 13.1518 110.967 13.1518C110.448 13.1518 109.969 12.8824 109.969 12.563C109.969 12.2437 110.388 11.9843 110.967 11.9843C111.546 11.9843 111.905 12.2437 111.905 12.563Z" fill="black"/>
<path d="M118.312 18.9497V19.9476H121.586C122.643 19.9476 124.639 19.3189 124.639 17.7722V16.8441C124.639 15.7265 122.643 15.7564 122.643 15.7564V17.7522C122.663 18.0366 122.568 18.317 122.381 18.5321C122.194 18.7471 121.93 18.8794 121.646 18.8998L118.312 18.9497Z" fill="black"/>
<path d="M126.547 19.8178C127.186 19.4785 128.543 18.8199 128.543 17.822V10.4974C128.543 9.38973 126.547 9.40969 126.547 9.40969V19.8178Z" fill="black"/>
<path d="M116.348 24.3883C116.987 24.049 118.344 23.3904 118.344 22.3925V16.6944C118.344 15.5868 116.348 15.6067 116.348 15.6067V24.3883Z" fill="black"/>
<path d="M87.3167 24.3882C87.9453 24.049 89.3125 23.3903 89.3125 22.3924V16.6844C89.3125 15.5767 87.3167 15.5967 87.3167 15.5967V24.3882Z" fill="black"/>
<path d="M91.7872 18.8599L90.7893 20.0673H97.4154C97.9864 20.0808 98.5396 19.8681 98.9545 19.4756C99.3694 19.0831 99.6125 18.5426 99.6307 17.9717C99.6354 17.9086 99.6354 17.8453 99.6307 17.7821V10.4775C99.6307 9.35983 97.6948 9.37978 97.6948 9.37978V17.6923C97.7115 17.9771 97.6167 18.2572 97.4304 18.4733C97.2441 18.6894 96.981 18.8245 96.6969 18.8499H91.7872V18.8599Z" fill="black"/>
<path d="M101.168 19.7979C101.797 19.4686 103.164 18.8 103.164 17.8021V10.4875C103.164 9.3698 101.168 9.39974 101.168 9.39974V19.7979Z" fill="black"/>
<path d="M83.4377 19.7979C84.0564 19.4686 85.4336 18.8 85.4336 17.8021V10.4875C85.4336 9.3698 83.4377 9.39974 83.4377 9.39974V19.7979Z" fill="black"/>
<path d="M93.5237 18.6203C94.1623 18.2811 95.5195 17.6224 95.5195 16.6245V10.5074C95.5195 9.38973 93.5237 9.40969 93.5237 9.40969V18.6203Z" fill="black"/>
<path d="M34.5802 18.8599L33.5823 20.0674H40.2084C40.7757 20.0781 41.3242 19.8636 41.7338 19.4708C42.1434 19.0781 42.3807 18.5391 42.3938 17.9718V10.4775C42.3938 9.36984 40.398 9.38979 40.398 9.38979L40.4179 17.7423C40.4346 18.027 40.3398 18.3072 40.1535 18.5232C39.9672 18.7393 39.7042 18.8744 39.42 18.8998L34.5802 18.8599Z" fill="black"/>
<path d="M43.8284 19.7979C44.457 19.4686 45.8242 18.8 45.8242 17.8021V10.4875C45.8242 9.3698 43.8284 9.39974 43.8284 9.39974V19.7979Z" fill="black"/>
<path d="M36.3167 18.6204C36.9354 18.2811 38.3125 17.6225 38.3125 16.6246V10.4875C38.3125 9.36984 36.3167 9.38979 36.3167 9.38979V18.6204Z" fill="black"/>
<path d="M14.0932 18.9298L13.0354 19.9975H19.6515C20.2215 20.0082 20.7725 19.7927 21.184 19.3981C21.5954 19.0034 21.8338 18.4619 21.8469 17.8919V10.3977C21.8469 9.29 19.901 9.30996 19.901 9.30996V17.7921C19.9105 17.9324 19.8921 18.0732 19.8471 18.2064C19.802 18.3396 19.7311 18.4626 19.6384 18.5683C19.5456 18.674 19.4329 18.7603 19.3068 18.8223C19.1806 18.8844 19.0434 18.9209 18.9031 18.9298H14.0932Z" fill="black"/>
<path d="M15.9885 18.5505C16.6272 18.2212 17.9843 17.5526 17.9843 16.5547V10.4276C17.9843 9.31991 16.0384 9.33987 16.0384 9.33987L15.9885 18.5505Z" fill="black"/>
<path d="M34.7776 7.90287H38.3002L37.8112 7.35403H36.8133C36.659 7.33644 36.5172 7.2605 36.417 7.14177C36.3168 7.02303 36.2658 6.87048 36.2744 6.71537C36.2744 6.5698 36.3323 6.4302 36.4352 6.32727C36.5381 6.22435 36.6777 6.16652 36.8233 6.16652H37.8212V5.49792H36.2545C35.9641 5.53067 35.6978 5.67486 35.5116 5.9001C35.3255 6.12534 35.2341 6.41405 35.2566 6.70539C35.2549 6.93153 35.3098 7.15449 35.4162 7.35403C34.9373 7.35403 34.7776 7.90287 34.7776 7.90287Z" fill="black"/>
<path d="M92.5667 8.12239H96.0793L95.5903 7.56356H94.5924C94.4407 7.54599 94.3014 7.47111 94.2031 7.35424C94.1048 7.23738 94.0549 7.08736 94.0635 6.93488C94.066 6.78915 94.1243 6.64993 94.2264 6.54595C94.3285 6.44196 94.4667 6.38115 94.6123 6.37606H95.6103V5.76733H94.0336C93.743 5.79519 93.4752 5.9366 93.2883 6.16084C93.1015 6.38507 93.0107 6.674 93.0357 6.96482C93.0281 7.19478 93.0833 7.42246 93.1953 7.62344C92.7163 7.57354 92.5667 8.12239 92.5667 8.12239Z" fill="black"/>
<path d="M4.28149 13.9002H7.79412L7.30514 13.3414H6.30724C6.15902 13.3312 6.0204 13.2643 5.92009 13.1548C5.81978 13.0452 5.76546 12.9012 5.76837 12.7526C5.76705 12.6806 5.77994 12.6089 5.80631 12.5418C5.83267 12.4747 5.872 12.4135 5.92204 12.3616C5.97208 12.3097 6.03186 12.2682 6.09795 12.2394C6.16404 12.2106 6.23516 12.1951 6.30724 12.1938H6.36711H7.36502V11.5452H5.75839C5.46988 11.5779 5.2051 11.7207 5.01921 11.9437C4.83333 12.1668 4.74065 12.453 4.76049 12.7427C4.76104 12.9698 4.81942 13.193 4.93013 13.3913C4.43118 13.3514 4.28149 13.9002 4.28149 13.9002Z" fill="black"/>
<path d="M118.422 14.1497H121.935L121.456 13.6009H120.458C120.308 13.581 120.171 13.5051 120.075 13.3885C119.979 13.2719 119.93 13.1232 119.939 12.9722C119.939 12.8257 119.996 12.6851 120.099 12.5805C120.202 12.476 120.341 12.416 120.488 12.4134H121.486V11.7548H119.889C119.742 11.7637 119.599 11.8015 119.466 11.866C119.334 11.9306 119.216 12.0206 119.119 12.1309C119.021 12.2412 118.947 12.3697 118.899 12.5089C118.851 12.6482 118.832 12.7954 118.841 12.9423C118.829 13.1727 118.884 13.4017 119.001 13.6009C118.572 13.5909 118.422 14.1497 118.422 14.1497Z" fill="black"/>
<path d="M114.34 19.9775V15.2874C114.362 15.077 114.326 14.8646 114.236 14.6731C114.146 14.4815 114.006 14.3179 113.831 14.1997C113.395 13.9498 112.896 13.8319 112.394 13.8604V18.9497H108.642C108.292 18.8667 107.984 18.6586 107.776 18.3646C107.568 18.0706 107.475 17.7109 107.514 17.353C107.498 16.9945 107.616 16.6428 107.845 16.3662C108.073 16.0896 108.396 15.9078 108.752 15.8562H112.374V14.8583H107.514C106.918 14.9259 106.372 15.2278 105.998 15.6975C105.624 16.1671 105.451 16.7662 105.518 17.363C105.518 18.81 106.446 20.0274 107.514 20.0274L114.34 19.9775Z" fill="black"/>
<path d="M129.071 19.9775L130.597 18.9796H134.759C135.111 18.9006 135.422 18.6935 135.63 18.3984C135.838 18.1034 135.93 17.7415 135.886 17.3829C135.907 17.0248 135.793 16.672 135.565 16.3946C135.338 16.1172 135.014 15.9356 134.659 15.8861H131.036V14.8882H135.896C136.492 14.9632 137.034 15.2685 137.407 15.7385C137.78 16.2086 137.954 16.806 137.892 17.4029C137.892 18.8499 136.964 20.0573 135.896 20.0573L129.071 19.9775Z" fill="black"/>
<path d="M72.9963 20.0175H79.7821C80.8598 20.0175 81.7779 18.8 81.7779 17.3531C81.8399 16.7573 81.6654 16.161 81.2922 15.6926C80.9189 15.2241 80.3766 14.921 79.7821 14.8483H74.8924L74.9522 15.8462H78.5846C78.9399 15.8958 79.2635 16.0773 79.4909 16.3547C79.7184 16.6321 79.833 16.985 79.812 17.3431C79.8531 17.7013 79.7609 18.0621 79.5529 18.3566C79.3449 18.6511 79.0357 18.8587 78.6844 18.9397H74.9422V15.3373C74.9639 15.1269 74.928 14.9146 74.8383 14.723C74.7487 14.5314 74.6087 14.3678 74.4333 14.2496C73.9973 13.9997 73.4981 13.8818 72.9963 13.9103V18.9796" fill="black"/>
<path d="M19.1917 20.0274H30.6676C31.7353 20.0274 32.6634 18.8099 32.6634 17.363C32.7281 16.7656 32.555 16.1668 32.1814 15.6961C31.8079 15.2255 31.264 14.9209 30.6676 14.8483H24.6801V15.8961H29.4401C29.7982 15.9435 30.1247 16.1258 30.3529 16.4059C30.581 16.686 30.6936 17.0426 30.6676 17.4029C30.7087 17.7611 30.6164 18.1219 30.4084 18.4164C30.2004 18.7109 29.8912 18.9185 29.5399 18.9995H26.646V15.8961H24.72V18.9896H21.3172" fill="black"/>
<path d="M57.0398 14.9082H50.2241C49.1564 14.9082 48.2283 16.1256 48.2283 17.5726C48.1637 18.1689 48.3371 18.7665 48.7109 19.2356C49.0847 19.7047 49.6285 20.0072 50.2241 20.0773H55.0839V19.0794H51.3917C51.0364 19.0299 50.7128 18.8483 50.4854 18.571C50.2579 18.2936 50.1433 17.9407 50.1643 17.5826C50.1232 17.2244 50.2154 16.8636 50.4234 16.5691C50.6314 16.2746 50.9406 16.067 51.2919 15.9859H55.034V25.3463C55.034 25.3463 57.0299 25.3463 57.0299 24.069L57.0398 14.9082Z" fill="black"/>
<path d="M66.2799 33.7086H73.0956C74.1634 33.7086 75.0914 34.936 75.0914 36.383C75.1561 36.9793 74.9826 37.5769 74.6089 38.046C74.2351 38.5151 73.6913 38.8176 73.0956 38.8877H68.2458V37.8898H71.8782C72.2335 37.8403 72.557 37.6587 72.7845 37.3813C73.012 37.104 73.1266 36.7511 73.1056 36.393C73.1718 36.0235 73.0938 35.6428 72.8878 35.3291C72.6817 35.0154 72.3633 34.7926 71.9979 34.7065H68.2458V42.7895C68.2458 44.1068 66.25 44.0669 66.25 44.0669L66.2799 33.7086Z" fill="black"/>
<path d="M18.8297 38.8678H12.014C10.9363 38.8678 10.0182 37.6503 10.0182 36.2034C9.95087 35.6066 10.1233 35.0075 10.4975 34.5378C10.8718 34.0681 11.4173 33.7663 12.014 33.6986H16.8638V34.6966H13.2215C12.8662 34.7461 12.5426 34.9277 12.3151 35.205C12.0877 35.4824 11.973 35.8353 11.994 36.1934C11.9525 36.5502 12.0434 36.9099 12.2494 37.2042C12.4554 37.4985 12.7622 37.7069 13.1117 37.7901H16.8638V32.601C16.8638 32.601 18.8596 32.601 18.8596 33.6687L18.8297 38.8678Z" fill="black"/>
<path d="M39.5563 38.8579H32.7406C31.6629 38.8579 30.7448 37.6404 30.7448 36.1934C30.6774 35.5956 30.8495 34.9953 31.2235 34.524C31.5976 34.0528 32.1431 33.7488 32.7406 33.6787H37.6004V34.6766H33.9481C33.5928 34.7262 33.2692 34.9077 33.0418 35.1851C32.8143 35.4625 32.6997 35.8154 32.7207 36.1735C32.6739 36.5335 32.7623 36.898 32.9687 37.1966C33.1752 37.4952 33.485 37.7067 33.8383 37.7901H37.5805V28.4896C37.5805 28.4896 39.5763 28.4397 39.5763 29.757L39.5563 38.8579Z" fill="black"/>
<path d="M29.2577 38.8678H27.4415V35.8741C27.4553 35.6444 27.3783 35.4184 27.2272 35.2448C27.076 35.0712 26.8627 34.964 26.6332 34.9461H22.3921V38.9377H20.5859V33.9482H27.3617C27.8444 33.932 28.3139 34.1077 28.6674 34.4369C29.0209 34.766 29.2295 35.2218 29.2477 35.7045V38.9078L29.2577 38.8678Z" fill="black"/>
<path d="M111.716 38.6981H109.859V35.7044C109.868 35.5904 109.853 35.4758 109.817 35.3674C109.781 35.2589 109.723 35.1587 109.648 35.0724C109.573 34.9862 109.482 34.9157 109.379 34.8648C109.277 34.814 109.165 34.784 109.051 34.7764H104.84V38.768H102.914V33.7785H109.79C110.28 33.7623 110.757 33.9412 111.116 34.2759C111.476 34.6107 111.687 35.0741 111.706 35.5647V35.7244L111.716 38.6981Z" fill="black"/>
<path d="M133.621 38.758H131.795V36.1036C131.795 35.0358 130.967 35.0059 130.967 35.0059H126.746V38.6981H124.84V33.549H131.735C132.005 33.5589 132.269 33.6232 132.513 33.7381C132.757 33.853 132.975 34.0161 133.154 34.2175C133.333 34.4189 133.469 34.6545 133.555 34.91C133.64 35.1656 133.673 35.4358 133.651 35.7044C133.651 35.7643 133.651 35.8142 133.651 35.8641L133.621 38.758Z" fill="black"/>
<path d="M106.507 33.7086C107.425 33.7086 108.343 34.2774 108.343 35.8142V38.6981H106.527V35.8441C106.527 34.7764 105.699 34.7464 105.699 34.7464" fill="black"/>
<path d="M93.6557 34.7066H89.0054V38.778H87.1992V33.6388H91.8894C92.6178 33.6388 93.3962 33.6388 93.6756 34.6367L93.6557 34.7066Z" fill="black"/>
<path d="M135.787 34.9261V38.6982H137.782V34.9561H141.135C141.04 34.5721 140.823 34.2291 140.518 33.9776C140.212 33.7261 139.834 33.5793 139.439 33.559H137.762V32.621C137.762 32.621 136.156 32.621 135.866 33.559H134.719V34.9461L135.787 34.9261Z" fill="black"/>
<path d="M95.1406 34.7066H96.1984V38.6982H98.1942V34.7066H101.547C101.428 34.3669 101.192 34.0804 100.881 33.8978C100.571 33.7152 100.206 33.6482 99.8507 33.7087H98.1443V32.611C98.1443 32.611 96.5477 32.7108 96.2982 33.7087H95.1406V34.7066Z" fill="black"/>
<path d="M43.7196 28.7191H51.3935C51.9478 28.7023 52.487 28.9008 52.8982 29.2728C53.3093 29.6449 53.5604 30.1617 53.5989 30.7149V36.5128C53.6317 37.0771 53.4405 37.6316 53.0668 38.0558C52.6931 38.48 52.1671 38.7395 51.603 38.778H44.7175L46.1146 37.7801H50.665C50.9493 37.7596 51.2139 37.6274 51.4009 37.4123C51.5879 37.1973 51.6821 36.9169 51.6629 36.6325V31.0043C51.6742 30.7239 51.5766 30.4501 51.3906 30.2399C51.2047 30.0298 50.9447 29.8996 50.665 29.8767H45.6755V37.0117C45.6755 37.8599 44.3283 38.5285 43.6797 38.8778L43.7196 28.7191Z" fill="black"/>
<path d="M0.5 28.799C0.5 28.799 2.32617 28.7989 2.32617 29.8667V36.7922C2.30969 37.0749 2.40514 37.3527 2.59188 37.5656C2.77862 37.7784 3.04164 37.9093 3.32407 37.9298H8.31359L9.3115 38.9277H2.69539C2.13325 38.9465 1.58655 38.7418 1.17505 38.3584C0.763551 37.975 0.520809 37.444 0.5 36.882L0.5 28.799Z" fill="black"/>
<path d="M64.4648 37.7002C64.375 38.279 63.4669 38.6981 62.469 38.6981H57.8786C57.8786 38.6981 55.8828 38.6981 55.8828 37.6204V33.5889H62.2894C63.7363 33.5889 64.5646 33.8882 64.5546 35.0857C64.5446 36.2832 63.4868 36.5826 62.4291 36.5726H57.8387V35.5747H61.8303C61.98 35.5747 62.5588 35.5747 62.5588 35.0857C62.5588 34.5968 61.8702 34.6267 61.8702 34.6267H57.8387V37.7002H64.4648Z" fill="black"/>
<path d="M122.293 37.7002C122.203 38.279 121.295 38.6981 120.297 38.6981H115.707C115.707 38.6981 113.711 38.6981 113.711 37.6204V33.5889H120.117C121.564 33.5889 122.393 33.8882 122.383 35.0857C122.373 36.2832 121.315 36.5826 120.257 36.5726H115.657V35.5747H119.648C119.798 35.5747 120.377 35.5747 120.377 35.0857C120.377 34.5968 119.698 34.6267 119.698 34.6267H115.637V37.7002H122.293Z" fill="black"/>
<path d="M85.3219 38.6982V34.008C85.3417 33.7992 85.3049 33.589 85.2154 33.3993C85.1258 33.2097 84.9868 33.0477 84.813 32.9303C84.3602 32.6788 83.8417 32.5709 83.3261 32.6209V37.7003H79.584C79.2327 37.6192 78.9235 37.4116 78.7155 37.1171C78.5075 36.8226 78.4153 36.4618 78.4564 36.1036C78.4354 35.7455 78.55 35.3926 78.7775 35.1153C79.0049 34.8379 79.3285 34.6563 79.6838 34.6068H83.3261V33.6089H78.4663C77.8707 33.679 77.3269 33.9815 76.9531 34.4506C76.5793 34.9197 76.4059 35.5173 76.4705 36.1136C76.4705 37.5606 77.3986 38.778 78.4663 38.778L85.3219 38.6982Z" fill="black"/>
</g>
<defs>
<radialGradient id="paint0_radial_125_1193" cx="0" cy="0" r="1" gradientUnits="userSpaceOnUse" gradientTransform="translate(168.88 47.4737) scale(48.0635 51.3715)">
<stop stop-color="#FEFEFE"/>
<stop offset="0.07" stop-color="#F9BABC"/>
<stop offset="0.13" stop-color="#F48286"/>
<stop offset="0.19" stop-color="#F0555B"/>
<stop offset="0.24" stop-color="#EE363D"/>
<stop offset="0.28" stop-color="#EC222A"/>
<stop offset="0.31" stop-color="#EC1C24"/>
<stop offset="0.48" stop-color="#AB1F18"/>
<stop offset="0.6" stop-color="#E11C21"/>
<stop offset="0.62" stop-color="#EC1C24"/>
</radialGradient>
<radialGradient id="paint1_radial_125_1193" cx="0" cy="0" r="1" gradientUnits="userSpaceOnUse" gradientTransform="translate(195.869 43.3265) scale(52.2933 51.3961)">
<stop offset="0.09" stop-color="#EC1C24"/>
<stop offset="0.12" stop-color="#D7191D"/>
<stop offset="0.22" stop-color="#9A110A"/>
<stop offset="0.27" stop-color="#820F03"/>
<stop offset="0.32" stop-color="#860F04"/>
<stop offset="0.38" stop-color="#941108"/>
<stop offset="0.45" stop-color="#AB140F"/>
<stop offset="0.51" stop-color="#CB1819"/>
<stop offset="0.57" stop-color="#EC1C24"/>
<stop offset="0.65" stop-color="#AD1A17"/>
<stop offset="0.69" stop-color="#B91A19"/>
<stop offset="0.77" stop-color="#DB1B21"/>
<stop offset="0.8" stop-color="#E91C24"/>
<stop offset="0.84" stop-color="#E01C22"/>
<stop offset="0.92" stop-color="#C71F1E"/>
<stop offset="0.93" stop-color="#C3201E"/>
</radialGradient>
<radialGradient id="paint2_radial_125_1193" cx="0" cy="0" r="1" gradientUnits="userSpaceOnUse" gradientTransform="translate(173.23 24.3428) scale(25.2141 23.8639)">
<stop offset="0.54" stop-color="white"/>
<stop offset="0.66" stop-color="#FBFBFB"/>
<stop offset="0.75" stop-color="#F2F2F2"/>
<stop offset="0.83" stop-color="#E2E2E2"/>
<stop offset="0.9" stop-color="#CBCBCB"/>
<stop offset="0.93" stop-color="#BFBFBF"/>
<stop offset="0.95" stop-color="#C3C3C3"/>
<stop offset="0.97" stop-color="#D0D0D0"/>
<stop offset="0.98" stop-color="#E6E6E6"/>
<stop offset="1" stop-color="white"/>
</radialGradient>
<radialGradient id="paint3_radial_125_1193" cx="0" cy="0" r="1" gradientUnits="userSpaceOnUse" gradientTransform="translate(172.79 17.9633) scale(4.06127 4.06127)">
<stop stop-color="white"/>
<stop offset="0.08" stop-color="#CBE9C9"/>
<stop offset="0.19" stop-color="#89CE83"/>
<stop offset="0.28" stop-color="#60BD58"/>
<stop offset="0.32" stop-color="#51B748"/>
<stop offset="0.45" stop-color="#32A142"/>
<stop offset="0.62" stop-color="#0D863C"/>
<stop offset="0.71" stop-color="#007D3A"/>
<stop offset="0.74" stop-color="#07803C"/>
<stop offset="0.79" stop-color="#1A8B45"/>
<stop offset="0.84" stop-color="#3A9D52"/>
<stop offset="0.9" stop-color="#67B665"/>
<stop offset="0.93" stop-color="#82C571"/>
</radialGradient>
<radialGradient id="paint4_radial_125_1193" cx="0" cy="0" r="1" gradientUnits="userSpaceOnUse" gradientTransform="translate(173.683 14.0493) scale(3.23142 3.23141)">
<stop stop-color="white"/>
<stop offset="0.08" stop-color="#CBE9C9"/>
<stop offset="0.19" stop-color="#89CE83"/>
<stop offset="0.28" stop-color="#60BD58"/>
<stop offset="0.32" stop-color="#51B748"/>
<stop offset="0.45" stop-color="#32A142"/>
<stop offset="0.62" stop-color="#0D863C"/>
<stop offset="0.71" stop-color="#007D3A"/>
<stop offset="0.74" stop-color="#07803C"/>
<stop offset="0.79" stop-color="#1A8B45"/>
<stop offset="0.84" stop-color="#3A9D52"/>
<stop offset="0.9" stop-color="#67B665"/>
<stop offset="0.93" stop-color="#82C571"/>
</radialGradient>
<radialGradient id="paint5_radial_125_1193" cx="0" cy="0" r="1" gradientUnits="userSpaceOnUse" gradientTransform="translate(177.557 15.8884) scale(3.35715 3.34458)">
<stop stop-color="white"/>
<stop offset="0.08" stop-color="#CBE9C9"/>
<stop offset="0.19" stop-color="#89CE83"/>
<stop offset="0.28" stop-color="#60BD58"/>
<stop offset="0.32" stop-color="#51B748"/>
<stop offset="0.45" stop-color="#32A142"/>
<stop offset="0.62" stop-color="#0D863C"/>
<stop offset="0.71" stop-color="#007D3A"/>
<stop offset="0.74" stop-color="#07803C"/>
<stop offset="0.79" stop-color="#1A8B45"/>
<stop offset="0.84" stop-color="#3A9D52"/>
<stop offset="0.9" stop-color="#67B665"/>
<stop offset="0.93" stop-color="#82C571"/>
</radialGradient>
<radialGradient id="paint6_radial_125_1193" cx="0" cy="0" r="1" gradientUnits="userSpaceOnUse" gradientTransform="translate(176.588 13.204) scale(3.00509)">
<stop stop-color="white"/>
<stop offset="0.08" stop-color="#CBE9C9"/>
<stop offset="0.19" stop-color="#89CE83"/>
<stop offset="0.28" stop-color="#60BD58"/>
<stop offset="0.32" stop-color="#51B748"/>
<stop offset="0.45" stop-color="#32A142"/>
<stop offset="0.62" stop-color="#0D863C"/>
<stop offset="0.71" stop-color="#007D3A"/>
<stop offset="0.74" stop-color="#07803C"/>
<stop offset="0.79" stop-color="#1A8B45"/>
<stop offset="0.84" stop-color="#3A9D52"/>
<stop offset="0.9" stop-color="#67B665"/>
<stop offset="0.93" stop-color="#82C571"/>
</radialGradient>
<radialGradient id="paint7_radial_125_1193" cx="0" cy="0" r="1" gradientUnits="userSpaceOnUse" gradientTransform="translate(172.949 7.25666) scale(2.20038)">
<stop stop-color="white"/>
<stop offset="0.08" stop-color="#CBE9C9"/>
<stop offset="0.19" stop-color="#89CE83"/>
<stop offset="0.28" stop-color="#60BD58"/>
<stop offset="0.32" stop-color="#51B748"/>
<stop offset="0.45" stop-color="#32A142"/>
<stop offset="0.62" stop-color="#0D863C"/>
<stop offset="0.71" stop-color="#007D3A"/>
<stop offset="0.74" stop-color="#07803C"/>
<stop offset="0.79" stop-color="#1A8B45"/>
<stop offset="0.84" stop-color="#3A9D52"/>
<stop offset="0.9" stop-color="#67B665"/>
<stop offset="0.93" stop-color="#82C571"/>
</radialGradient>
<radialGradient id="paint8_radial_125_1193" cx="0" cy="0" r="1" gradientUnits="userSpaceOnUse" gradientTransform="translate(186.587 18.5728) scale(1.9992 1.98663)">
<stop stop-color="white"/>
<stop offset="0.08" stop-color="#CBE9C9"/>
<stop offset="0.19" stop-color="#89CE83"/>
<stop offset="0.28" stop-color="#60BD58"/>
<stop offset="0.32" stop-color="#51B748"/>
<stop offset="0.45" stop-color="#32A142"/>
<stop offset="0.62" stop-color="#0D863C"/>
<stop offset="0.71" stop-color="#007D3A"/>
<stop offset="0.74" stop-color="#07803C"/>
<stop offset="0.79" stop-color="#1A8B45"/>
<stop offset="0.84" stop-color="#3A9D52"/>
<stop offset="0.9" stop-color="#67B665"/>
<stop offset="0.93" stop-color="#82C571"/>
</radialGradient>
<radialGradient id="paint9_radial_125_1193" cx="0" cy="0" r="1" gradientUnits="userSpaceOnUse" gradientTransform="translate(181.747 9.89857) scale(2.03694 2.03692)">
<stop stop-color="white"/>
<stop offset="0.08" stop-color="#CBE9C9"/>
<stop offset="0.19" stop-color="#89CE83"/>
<stop offset="0.28" stop-color="#60BD58"/>
<stop offset="0.32" stop-color="#51B748"/>
<stop offset="0.45" stop-color="#32A142"/>
<stop offset="0.62" stop-color="#0D863C"/>
<stop offset="0.71" stop-color="#007D3A"/>
<stop offset="0.74" stop-color="#07803C"/>
<stop offset="0.79" stop-color="#1A8B45"/>
<stop offset="0.84" stop-color="#3A9D52"/>
<stop offset="0.9" stop-color="#67B665"/>
<stop offset="0.93" stop-color="#82C571"/>
</radialGradient>
<radialGradient id="paint10_radial_125_1193" cx="0" cy="0" r="1" gradientUnits="userSpaceOnUse" gradientTransform="translate(184.307 10.4126) scale(1.79803 1.78545)">
<stop stop-color="white"/>
<stop offset="0.08" stop-color="#CBE9C9"/>
<stop offset="0.19" stop-color="#89CE83"/>
<stop offset="0.28" stop-color="#60BD58"/>
<stop offset="0.32" stop-color="#51B748"/>
<stop offset="0.45" stop-color="#32A142"/>
<stop offset="0.62" stop-color="#0D863C"/>
<stop offset="0.71" stop-color="#007D3A"/>
<stop offset="0.74" stop-color="#07803C"/>
<stop offset="0.79" stop-color="#1A8B45"/>
<stop offset="0.84" stop-color="#3A9D52"/>
<stop offset="0.9" stop-color="#67B665"/>
<stop offset="0.93" stop-color="#82C571"/>
</radialGradient>
<radialGradient id="paint11_radial_125_1193" cx="0" cy="0" r="1" gradientUnits="userSpaceOnUse" gradientTransform="translate(184.477 16.5333) scale(1.98663 1.9992)">
<stop stop-color="white"/>
<stop offset="0.08" stop-color="#CBE9C9"/>
<stop offset="0.19" stop-color="#89CE83"/>
<stop offset="0.28" stop-color="#60BD58"/>
<stop offset="0.32" stop-color="#51B748"/>
<stop offset="0.45" stop-color="#32A142"/>
<stop offset="0.62" stop-color="#0D863C"/>
<stop offset="0.71" stop-color="#007D3A"/>
<stop offset="0.74" stop-color="#07803C"/>
<stop offset="0.79" stop-color="#1A8B45"/>
<stop offset="0.84" stop-color="#3A9D52"/>
<stop offset="0.9" stop-color="#67B665"/>
<stop offset="0.93" stop-color="#82C571"/>
</radialGradient>
<radialGradient id="paint12_radial_125_1193" cx="0" cy="0" r="1" gradientUnits="userSpaceOnUse" gradientTransform="translate(173.277 6.02433) scale(1.68396 1.69644)">
<stop stop-color="white"/>
<stop offset="0.08" stop-color="#CBE9C9"/>
<stop offset="0.19" stop-color="#89CE83"/>
<stop offset="0.28" stop-color="#60BD58"/>
<stop offset="0.32" stop-color="#51B748"/>
<stop offset="0.45" stop-color="#32A142"/>
<stop offset="0.62" stop-color="#0D863C"/>
<stop offset="0.71" stop-color="#007D3A"/>
<stop offset="0.74" stop-color="#07803C"/>
<stop offset="0.79" stop-color="#1A8B45"/>
<stop offset="0.84" stop-color="#3A9D52"/>
<stop offset="0.9" stop-color="#67B665"/>
<stop offset="0.93" stop-color="#82C571"/>
</radialGradient>
<radialGradient id="paint13_radial_125_1193" cx="0" cy="0" r="1" gradientUnits="userSpaceOnUse" gradientTransform="translate(186.404 9.40223) scale(1.58429 1.5717)">
<stop stop-color="white"/>
<stop offset="0.08" stop-color="#CBE9C9"/>
<stop offset="0.19" stop-color="#89CE83"/>
<stop offset="0.28" stop-color="#60BD58"/>
<stop offset="0.32" stop-color="#51B748"/>
<stop offset="0.45" stop-color="#32A142"/>
<stop offset="0.62" stop-color="#0D863C"/>
<stop offset="0.71" stop-color="#007D3A"/>
<stop offset="0.74" stop-color="#07803C"/>
<stop offset="0.79" stop-color="#1A8B45"/>
<stop offset="0.84" stop-color="#3A9D52"/>
<stop offset="0.9" stop-color="#67B665"/>
<stop offset="0.93" stop-color="#82C571"/>
</radialGradient>
<radialGradient id="paint14_radial_125_1193" cx="0" cy="0" r="1" gradientUnits="userSpaceOnUse" gradientTransform="translate(189.103 19.8272) scale(1.53348 1.53348)">
<stop stop-color="white"/>
<stop offset="0.08" stop-color="#CBE9C9"/>
<stop offset="0.19" stop-color="#89CE83"/>
<stop offset="0.28" stop-color="#60BD58"/>
<stop offset="0.32" stop-color="#51B748"/>
<stop offset="0.45" stop-color="#32A142"/>
<stop offset="0.62" stop-color="#0D863C"/>
<stop offset="0.71" stop-color="#007D3A"/>
<stop offset="0.74" stop-color="#07803C"/>
<stop offset="0.79" stop-color="#1A8B45"/>
<stop offset="0.84" stop-color="#3A9D52"/>
<stop offset="0.9" stop-color="#67B665"/>
<stop offset="0.93" stop-color="#82C571"/>
</radialGradient>
<radialGradient id="paint15_radial_125_1193" cx="0" cy="0" r="1" gradientUnits="userSpaceOnUse" gradientTransform="translate(188.712 10.5968) scale(1.10648 1.10648)">
<stop stop-color="white"/>
<stop offset="0.08" stop-color="#CBE9C9"/>
<stop offset="0.19" stop-color="#89CE83"/>
<stop offset="0.28" stop-color="#60BD58"/>
<stop offset="0.32" stop-color="#51B748"/>
<stop offset="0.45" stop-color="#32A142"/>
<stop offset="0.62" stop-color="#0D863C"/>
<stop offset="0.71" stop-color="#007D3A"/>
<stop offset="0.74" stop-color="#07803C"/>
<stop offset="0.79" stop-color="#1A8B45"/>
<stop offset="0.84" stop-color="#3A9D52"/>
<stop offset="0.9" stop-color="#67B665"/>
<stop offset="0.93" stop-color="#82C571"/>
</radialGradient>
<radialGradient id="paint16_radial_125_1193" cx="0" cy="0" r="1" gradientUnits="userSpaceOnUse" gradientTransform="translate(190.286 21.5729) scale(1.0939 1.0939)">
<stop stop-color="white"/>
<stop offset="0.08" stop-color="#CBE9C9"/>
<stop offset="0.19" stop-color="#89CE83"/>
<stop offset="0.28" stop-color="#60BD58"/>
<stop offset="0.32" stop-color="#51B748"/>
<stop offset="0.45" stop-color="#32A142"/>
<stop offset="0.62" stop-color="#0D863C"/>
<stop offset="0.71" stop-color="#007D3A"/>
<stop offset="0.74" stop-color="#07803C"/>
<stop offset="0.79" stop-color="#1A8B45"/>
<stop offset="0.84" stop-color="#3A9D52"/>
<stop offset="0.9" stop-color="#67B665"/>
<stop offset="0.93" stop-color="#82C571"/>
</radialGradient>
<radialGradient id="paint17_radial_125_1193" cx="0" cy="0" r="1" gradientUnits="userSpaceOnUse" gradientTransform="translate(173.22 11.8172) scale(2.70333 2.69075)">
<stop stop-color="white"/>
<stop offset="0.08" stop-color="#CBE9C9"/>
<stop offset="0.19" stop-color="#89CE83"/>
<stop offset="0.28" stop-color="#60BD58"/>
<stop offset="0.32" stop-color="#51B748"/>
<stop offset="0.45" stop-color="#32A142"/>
<stop offset="0.62" stop-color="#0D863C"/>
<stop offset="0.71" stop-color="#007D3A"/>
<stop offset="0.74" stop-color="#07803C"/>
<stop offset="0.79" stop-color="#1A8B45"/>
<stop offset="0.84" stop-color="#3A9D52"/>
<stop offset="0.9" stop-color="#67B665"/>
<stop offset="0.93" stop-color="#82C571"/>
</radialGradient>
<radialGradient id="paint18_radial_125_1193" cx="0" cy="0" r="1" gradientUnits="userSpaceOnUse" gradientTransform="translate(177.865 21.1569) scale(3.15598 3.15597)">
<stop stop-color="white"/>
<stop offset="0.08" stop-color="#CBE9C9"/>
<stop offset="0.19" stop-color="#89CE83"/>
<stop offset="0.28" stop-color="#60BD58"/>
<stop offset="0.32" stop-color="#51B748"/>
<stop offset="0.45" stop-color="#32A142"/>
<stop offset="0.62" stop-color="#0D863C"/>
<stop offset="0.71" stop-color="#007D3A"/>
<stop offset="0.74" stop-color="#07803C"/>
<stop offset="0.79" stop-color="#1A8B45"/>
<stop offset="0.84" stop-color="#3A9D52"/>
<stop offset="0.9" stop-color="#67B665"/>
<stop offset="0.93" stop-color="#82C571"/>
</radialGradient>
<radialGradient id="paint19_radial_125_1193" cx="0" cy="0" r="1" gradientUnits="userSpaceOnUse" gradientTransform="translate(182.895 25.4465) scale(2.1375 2.12494)">
<stop stop-color="white"/>
<stop offset="0.08" stop-color="#CBE9C9"/>
<stop offset="0.19" stop-color="#89CE83"/>
<stop offset="0.28" stop-color="#60BD58"/>
<stop offset="0.32" stop-color="#51B748"/>
<stop offset="0.45" stop-color="#32A142"/>
<stop offset="0.62" stop-color="#0D863C"/>
<stop offset="0.71" stop-color="#007D3A"/>
<stop offset="0.74" stop-color="#07803C"/>
<stop offset="0.79" stop-color="#1A8B45"/>
<stop offset="0.84" stop-color="#3A9D52"/>
<stop offset="0.9" stop-color="#67B665"/>
<stop offset="0.93" stop-color="#82C571"/>
</radialGradient>
<radialGradient id="paint20_radial_125_1193" cx="0" cy="0" r="1" gradientUnits="userSpaceOnUse" gradientTransform="translate(183.686 27.7437) scale(1.64714 1.64714)">
<stop stop-color="white"/>
<stop offset="0.08" stop-color="#CBE9C9"/>
<stop offset="0.19" stop-color="#89CE83"/>
<stop offset="0.28" stop-color="#60BD58"/>
<stop offset="0.32" stop-color="#51B748"/>
<stop offset="0.45" stop-color="#32A142"/>
<stop offset="0.62" stop-color="#0D863C"/>
<stop offset="0.71" stop-color="#007D3A"/>
<stop offset="0.74" stop-color="#07803C"/>
<stop offset="0.79" stop-color="#1A8B45"/>
<stop offset="0.84" stop-color="#3A9D52"/>
<stop offset="0.9" stop-color="#67B665"/>
<stop offset="0.93" stop-color="#82C571"/>
</radialGradient>
<radialGradient id="paint21_radial_125_1193" cx="0" cy="0" r="1" gradientUnits="userSpaceOnUse" gradientTransform="translate(184.242 30.1214) scale(1.15676 1.15677)">
<stop stop-color="white"/>
<stop offset="0.08" stop-color="#CBE9C9"/>
<stop offset="0.19" stop-color="#89CE83"/>
<stop offset="0.28" stop-color="#60BD58"/>
<stop offset="0.32" stop-color="#51B748"/>
<stop offset="0.45" stop-color="#32A142"/>
<stop offset="0.62" stop-color="#0D863C"/>
<stop offset="0.71" stop-color="#007D3A"/>
<stop offset="0.74" stop-color="#07803C"/>
<stop offset="0.79" stop-color="#1A8B45"/>
<stop offset="0.84" stop-color="#3A9D52"/>
<stop offset="0.9" stop-color="#67B665"/>
<stop offset="0.93" stop-color="#82C571"/>
</radialGradient>
<radialGradient id="paint22_radial_125_1193" cx="0" cy="0" r="1" gradientUnits="userSpaceOnUse" gradientTransform="translate(178.862 44.5461) scale(1.17863 1.17863)">
<stop stop-color="white"/>
<stop offset="0.08" stop-color="#CBE9C9"/>
<stop offset="0.19" stop-color="#89CE83"/>
<stop offset="0.28" stop-color="#60BD58"/>
<stop offset="0.32" stop-color="#51B748"/>
<stop offset="0.45" stop-color="#32A142"/>
<stop offset="0.62" stop-color="#0D863C"/>
<stop offset="0.71" stop-color="#007D3A"/>
<stop offset="0.74" stop-color="#07803C"/>
<stop offset="0.79" stop-color="#1A8B45"/>
<stop offset="0.84" stop-color="#3A9D52"/>
<stop offset="0.9" stop-color="#67B665"/>
<stop offset="0.93" stop-color="#82C571"/>
</radialGradient>
<radialGradient id="paint23_radial_125_1193" cx="0" cy="0" r="1" gradientUnits="userSpaceOnUse" gradientTransform="translate(180.231 22.9412) scale(2.62788 2.61531)">
<stop stop-color="white"/>
<stop offset="0.08" stop-color="#CBE9C9"/>
<stop offset="0.19" stop-color="#89CE83"/>
<stop offset="0.28" stop-color="#60BD58"/>
<stop offset="0.32" stop-color="#51B748"/>
<stop offset="0.45" stop-color="#32A142"/>
<stop offset="0.62" stop-color="#0D863C"/>
<stop offset="0.71" stop-color="#007D3A"/>
<stop offset="0.74" stop-color="#07803C"/>
<stop offset="0.79" stop-color="#1A8B45"/>
<stop offset="0.84" stop-color="#3A9D52"/>
<stop offset="0.9" stop-color="#67B665"/>
<stop offset="0.93" stop-color="#82C571"/>
</radialGradient>
<radialGradient id="paint24_radial_125_1193" cx="0" cy="0" r="1" gradientUnits="userSpaceOnUse" gradientTransform="translate(181.346 16.0996) scale(2.43928 2.45185)">
<stop stop-color="white"/>
<stop offset="0.08" stop-color="#CBE9C9"/>
<stop offset="0.19" stop-color="#89CE83"/>
<stop offset="0.28" stop-color="#60BD58"/>
<stop offset="0.32" stop-color="#51B748"/>
<stop offset="0.45" stop-color="#32A142"/>
<stop offset="0.62" stop-color="#0D863C"/>
<stop offset="0.71" stop-color="#007D3A"/>
<stop offset="0.74" stop-color="#07803C"/>
<stop offset="0.79" stop-color="#1A8B45"/>
<stop offset="0.84" stop-color="#3A9D52"/>
<stop offset="0.9" stop-color="#67B665"/>
<stop offset="0.93" stop-color="#82C571"/>
</radialGradient>
<radialGradient id="paint25_radial_125_1193" cx="0" cy="0" r="1" gradientUnits="userSpaceOnUse" gradientTransform="translate(179.552 11.8795) scale(2.48957 2.48957)">
<stop stop-color="white"/>
<stop offset="0.08" stop-color="#CBE9C9"/>
<stop offset="0.19" stop-color="#89CE83"/>
<stop offset="0.28" stop-color="#60BD58"/>
<stop offset="0.32" stop-color="#51B748"/>
<stop offset="0.45" stop-color="#32A142"/>
<stop offset="0.62" stop-color="#0D863C"/>
<stop offset="0.71" stop-color="#007D3A"/>
<stop offset="0.74" stop-color="#07803C"/>
<stop offset="0.79" stop-color="#1A8B45"/>
<stop offset="0.84" stop-color="#3A9D52"/>
<stop offset="0.9" stop-color="#67B665"/>
<stop offset="0.93" stop-color="#82C571"/>
</radialGradient>
<radialGradient id="paint26_radial_125_1193" cx="0" cy="0" r="1" gradientUnits="userSpaceOnUse" gradientTransform="translate(185.927 16.8223) scale(27.4943 27.5006)">
<stop offset="0.02" stop-color="white"/>
<stop offset="0.06" stop-color="#E1F2DF"/>
<stop offset="0.18" stop-color="#94D28E"/>
<stop offset="0.27" stop-color="#63BE5B"/>
<stop offset="0.31" stop-color="#51B748"/>
<stop offset="0.33" stop-color="#4BB045"/>
<stop offset="0.59" stop-color="#15732E"/>
<stop offset="0.71" stop-color="#005B26"/>
</radialGradient>
<radialGradient id="paint27_radial_125_1193" cx="0" cy="0" r="1" gradientUnits="userSpaceOnUse" gradientTransform="translate(176.246 43.8595) scale(1.47112 1.48368)">
<stop stop-color="white"/>
<stop offset="0.08" stop-color="#CBE9C9"/>
<stop offset="0.19" stop-color="#89CE83"/>
<stop offset="0.28" stop-color="#60BD58"/>
<stop offset="0.32" stop-color="#51B748"/>
<stop offset="0.45" stop-color="#32A142"/>
<stop offset="0.62" stop-color="#0D863C"/>
<stop offset="0.71" stop-color="#007D3A"/>
<stop offset="0.74" stop-color="#07803C"/>
<stop offset="0.79" stop-color="#1A8B45"/>
<stop offset="0.84" stop-color="#3A9D52"/>
<stop offset="0.9" stop-color="#67B665"/>
<stop offset="0.93" stop-color="#82C571"/>
</radialGradient>
<radialGradient id="paint28_radial_125_1193" cx="0" cy="0" r="1" gradientUnits="userSpaceOnUse" gradientTransform="translate(173.124 4.04624) scale(1.34538 1.34537)">
<stop stop-color="white"/>
<stop offset="0.08" stop-color="#CBE9C9"/>
<stop offset="0.19" stop-color="#89CE83"/>
<stop offset="0.28" stop-color="#60BD58"/>
<stop offset="0.32" stop-color="#51B748"/>
<stop offset="0.45" stop-color="#32A142"/>
<stop offset="0.62" stop-color="#0D863C"/>
<stop offset="0.71" stop-color="#007D3A"/>
<stop offset="0.74" stop-color="#07803C"/>
<stop offset="0.79" stop-color="#1A8B45"/>
<stop offset="0.84" stop-color="#3A9D52"/>
<stop offset="0.9" stop-color="#67B665"/>
<stop offset="0.93" stop-color="#82C571"/>
</radialGradient>
<radialGradient id="paint29_radial_125_1193" cx="0" cy="0" r="1" gradientUnits="userSpaceOnUse" gradientTransform="translate(172.995 2.49737) scale(1.05618 1.05618)">
<stop stop-color="white"/>
<stop offset="0.08" stop-color="#CBE9C9"/>
<stop offset="0.19" stop-color="#89CE83"/>
<stop offset="0.28" stop-color="#60BD58"/>
<stop offset="0.32" stop-color="#51B748"/>
<stop offset="0.45" stop-color="#32A142"/>
<stop offset="0.62" stop-color="#0D863C"/>
<stop offset="0.71" stop-color="#007D3A"/>
<stop offset="0.74" stop-color="#07803C"/>
<stop offset="0.79" stop-color="#1A8B45"/>
<stop offset="0.84" stop-color="#3A9D52"/>
<stop offset="0.9" stop-color="#67B665"/>
<stop offset="0.93" stop-color="#82C571"/>
</radialGradient>
<radialGradient id="paint30_radial_125_1193" cx="0" cy="0" r="1" gradientUnits="userSpaceOnUse" gradientTransform="translate(173.046 30.0184) scale(3.11825 3.11825)">
<stop stop-color="white"/>
<stop offset="0.08" stop-color="#CBE9C9"/>
<stop offset="0.19" stop-color="#89CE83"/>
<stop offset="0.28" stop-color="#60BD58"/>
<stop offset="0.32" stop-color="#51B748"/>
<stop offset="0.45" stop-color="#32A142"/>
<stop offset="0.62" stop-color="#0D863C"/>
<stop offset="0.71" stop-color="#007D3A"/>
<stop offset="0.74" stop-color="#07803C"/>
<stop offset="0.79" stop-color="#1A8B45"/>
<stop offset="0.84" stop-color="#3A9D52"/>
<stop offset="0.9" stop-color="#67B665"/>
<stop offset="0.93" stop-color="#82C571"/>
</radialGradient>
<radialGradient id="paint31_radial_125_1193" cx="0" cy="0" r="1" gradientUnits="userSpaceOnUse" gradientTransform="translate(173.377 23.7752) scale(3.74693 3.73436)">
<stop stop-color="white"/>
<stop offset="0.08" stop-color="#CBE9C9"/>
<stop offset="0.19" stop-color="#89CE83"/>
<stop offset="0.28" stop-color="#60BD58"/>
<stop offset="0.32" stop-color="#51B748"/>
<stop offset="0.45" stop-color="#32A142"/>
<stop offset="0.62" stop-color="#0D863C"/>
<stop offset="0.71" stop-color="#007D3A"/>
<stop offset="0.74" stop-color="#07803C"/>
<stop offset="0.79" stop-color="#1A8B45"/>
<stop offset="0.84" stop-color="#3A9D52"/>
<stop offset="0.9" stop-color="#67B665"/>
<stop offset="0.93" stop-color="#82C571"/>
</radialGradient>
<radialGradient id="paint32_radial_125_1193" cx="0" cy="0" r="1" gradientUnits="userSpaceOnUse" gradientTransform="translate(172.99 26.3045) scale(3.42002 3.43259)">
<stop stop-color="white"/>
<stop offset="0.08" stop-color="#CBE9C9"/>
<stop offset="0.19" stop-color="#89CE83"/>
<stop offset="0.28" stop-color="#60BD58"/>
<stop offset="0.32" stop-color="#51B748"/>
<stop offset="0.45" stop-color="#32A142"/>
<stop offset="0.62" stop-color="#0D863C"/>
<stop offset="0.71" stop-color="#007D3A"/>
<stop offset="0.74" stop-color="#07803C"/>
<stop offset="0.79" stop-color="#1A8B45"/>
<stop offset="0.84" stop-color="#3A9D52"/>
<stop offset="0.9" stop-color="#67B665"/>
<stop offset="0.93" stop-color="#82C571"/>
</radialGradient>
<radialGradient id="paint33_radial_125_1193" cx="0" cy="0" r="1" gradientUnits="userSpaceOnUse" gradientTransform="translate(173.224 44.4389) scale(1.87347 1.87346)">
<stop stop-color="white"/>
<stop offset="0.08" stop-color="#CBE9C9"/>
<stop offset="0.19" stop-color="#89CE83"/>
<stop offset="0.28" stop-color="#60BD58"/>
<stop offset="0.32" stop-color="#51B748"/>
<stop offset="0.45" stop-color="#32A142"/>
<stop offset="0.62" stop-color="#0D863C"/>
<stop offset="0.71" stop-color="#007D3A"/>
<stop offset="0.74" stop-color="#07803C"/>
<stop offset="0.79" stop-color="#1A8B45"/>
<stop offset="0.84" stop-color="#3A9D52"/>
<stop offset="0.9" stop-color="#67B665"/>
<stop offset="0.93" stop-color="#82C571"/>
</radialGradient>
<radialGradient id="paint34_radial_125_1193" cx="0" cy="0" r="1" gradientUnits="userSpaceOnUse" gradientTransform="translate(172.648 37.7053) scale(2.41413 2.40156)">
<stop stop-color="white"/>
<stop offset="0.08" stop-color="#CBE9C9"/>
<stop offset="0.19" stop-color="#89CE83"/>
<stop offset="0.28" stop-color="#60BD58"/>
<stop offset="0.32" stop-color="#51B748"/>
<stop offset="0.45" stop-color="#32A142"/>
<stop offset="0.62" stop-color="#0D863C"/>
<stop offset="0.71" stop-color="#007D3A"/>
<stop offset="0.74" stop-color="#07803C"/>
<stop offset="0.79" stop-color="#1A8B45"/>
<stop offset="0.84" stop-color="#3A9D52"/>
<stop offset="0.9" stop-color="#67B665"/>
<stop offset="0.93" stop-color="#82C571"/>
</radialGradient>
<radialGradient id="paint35_radial_125_1193" cx="0" cy="0" r="1" gradientUnits="userSpaceOnUse" gradientTransform="translate(172.823 41.7275) scale(2.06208 2.0495)">
<stop stop-color="white"/>
<stop offset="0.08" stop-color="#CBE9C9"/>
<stop offset="0.19" stop-color="#89CE83"/>
<stop offset="0.28" stop-color="#60BD58"/>
<stop offset="0.32" stop-color="#51B748"/>
<stop offset="0.45" stop-color="#32A142"/>
<stop offset="0.62" stop-color="#0D863C"/>
<stop offset="0.71" stop-color="#007D3A"/>
<stop offset="0.74" stop-color="#07803C"/>
<stop offset="0.79" stop-color="#1A8B45"/>
<stop offset="0.84" stop-color="#3A9D52"/>
<stop offset="0.9" stop-color="#67B665"/>
<stop offset="0.93" stop-color="#82C571"/>
</radialGradient>
<radialGradient id="paint36_radial_125_1193" cx="0" cy="0" r="1" gradientUnits="userSpaceOnUse" gradientTransform="translate(173.023 34.492) scale(2.59016 2.59016)">
<stop stop-color="white"/>
<stop offset="0.08" stop-color="#CBE9C9"/>
<stop offset="0.19" stop-color="#89CE83"/>
<stop offset="0.28" stop-color="#60BD58"/>
<stop offset="0.32" stop-color="#51B748"/>
<stop offset="0.45" stop-color="#32A142"/>
<stop offset="0.62" stop-color="#0D863C"/>
<stop offset="0.71" stop-color="#007D3A"/>
<stop offset="0.74" stop-color="#07803C"/>
<stop offset="0.79" stop-color="#1A8B45"/>
<stop offset="0.84" stop-color="#3A9D52"/>
<stop offset="0.9" stop-color="#67B665"/>
<stop offset="0.93" stop-color="#82C571"/>
</radialGradient>
<clipPath id="clip0_125_1193">
<rect width="200" height="47.1111" fill="white" transform="translate(0.5 0.777832)"/>
</clipPath>
</defs>
</svg>
