<svg width="201" height="128" viewBox="0 0 201 128" fill="none" xmlns="http://www.w3.org/2000/svg">
<g clip-path="url(#clip0_125_1145)">
<path d="M20.472 67.0108H27.1322C30.6537 67.0222 34.0354 65.6278 36.5334 63.1344C39.0315 60.641 40.4412 57.2529 40.4525 53.7154C40.4525 53.6869 40.4525 53.6585 40.4525 53.63V13.4023C40.4525 11.6451 40.1079 9.90513 39.4385 8.28169C38.7691 6.65825 37.7879 5.18316 36.551 3.94064C35.3141 2.69811 33.8457 1.71249 32.2296 1.04004C30.6135 0.367588 28.8814 0.0214837 27.1322 0.0214844H0.449219V67.0108H20.472ZM20.472 53.63H13.8119V13.4023H20.472C22.2384 13.4023 23.9325 14.1071 25.1815 15.3618C26.4306 16.6165 27.1323 18.3182 27.1323 20.0926C27.1323 20.1068 27.1323 20.1211 27.1322 20.1353V46.897C27.1434 48.6714 26.4525 50.3776 25.2115 51.6402C23.9705 52.9029 22.2809 53.6186 20.5146 53.6299C20.5004 53.63 20.4862 53.63 20.472 53.63Z" fill="#00909A"/>
<path d="M193.889 0.0212424C192.123 -0.0126609 190.416 0.659576 189.143 1.89007C187.87 3.12056 187.137 4.80852 187.103 6.5826C187.102 6.62561 187.102 6.66863 187.102 6.71166V67.0106H193.889C194.764 67.0106 195.63 66.8376 196.438 66.5013C197.246 66.1651 197.98 65.6723 198.598 65.051C199.217 64.4298 199.707 63.6922 200.042 62.8805C200.377 62.0688 200.549 61.1988 200.549 60.3202V0.0212424H193.889Z" fill="#00909A"/>
<path d="M133.865 46.8968C133.857 42.9918 132.723 39.1729 130.599 35.9023L130.09 36.4137C127.051 39.5097 123.195 41.6685 118.976 42.6354C119.975 43.8269 120.517 45.3386 120.503 46.8968C120.504 47.7761 120.334 48.6471 120 49.4599C119.666 50.2728 119.176 51.0117 118.558 51.6343C117.94 52.2568 117.206 52.7509 116.398 53.0882C115.589 53.4255 114.723 53.5994 113.847 53.6C112.972 53.6006 112.105 53.4279 111.296 53.0918C110.488 52.7556 109.753 52.2626 109.134 51.6409C108.515 51.0192 108.024 50.281 107.689 49.4686C107.354 48.6562 107.182 47.7855 107.182 46.9062V43.1894H93.7773V60.235C93.7773 62.0094 94.479 63.7111 95.7281 64.9658C96.9771 66.2205 98.6711 66.9254 100.437 66.9254H113.8C124.842 66.949 133.819 57.9887 133.865 46.8968Z" fill="#00909A"/>
<path d="M107.182 20.1353C107.172 18.902 107.498 17.6894 108.127 16.6298C108.755 15.5702 109.661 14.7044 110.746 14.1267V0.0214844H93.7773V23.8001H107.14L107.182 20.1353Z" fill="#00909A"/>
<path d="M60.476 26.4845V0.021132H53.8158C52.0495 0.00983172 50.351 0.70386 49.0941 1.95054C47.8371 3.19722 47.1247 4.89442 47.1134 6.66879C47.1133 6.68304 47.1133 6.69729 47.1133 6.71154V23.7572H53.7734C56.2755 23.757 58.6793 24.7352 60.476 26.4845Z" fill="#00909A"/>
<path d="M87.1601 23.8001V6.75451C87.1714 4.98014 86.4805 3.27395 85.2394 2.01129C83.9984 0.748625 82.3089 0.0329188 80.5425 0.0216163C80.5284 0.0215283 80.5142 0.0214844 80.5 0.0214844H73.8398V26.4848C75.6277 24.7537 78.0168 23.7907 80.5 23.8001L87.1601 23.8001Z" fill="#00909A"/>
<path d="M147.186 67.0107C148.061 67.0107 148.927 66.8377 149.735 66.5014C150.543 66.1652 151.277 65.6724 151.896 65.0511C152.514 64.4299 153.005 63.6923 153.34 62.8806C153.674 62.0689 153.847 61.1989 153.847 60.3203V43.2747H140.441V67.0533L147.186 67.0107Z" fill="#00909A"/>
<path d="M153.847 23.8V16.4277V6.71172C153.846 4.21897 154.803 1.82224 156.519 0.0213081H153.847C152.092 0.0157029 150.353 0.357358 148.73 1.02677C147.106 1.69618 145.63 2.68023 144.385 3.92274C143.14 5.16526 142.152 6.64189 141.475 8.26835C140.798 9.8948 140.447 11.6392 140.441 13.402V26.4847C142.234 24.7612 144.62 23.7994 147.102 23.8L153.847 23.8Z" fill="#00909A"/>
<path d="M180.526 36.2859C179.039 38.3975 177.077 40.127 174.799 41.3339C172.522 42.5408 169.993 43.1911 167.418 43.232V60.2776C167.418 61.1562 167.59 62.0262 167.925 62.8379C168.26 63.6497 168.75 64.3872 169.369 65.0085C169.987 65.6297 170.721 66.1225 171.529 66.4588C172.337 66.795 173.203 66.968 174.078 66.968H180.738L180.526 36.2859Z" fill="#00909A"/>
<path d="M53.8159 26.8256H47.1133V53.6298C47.1078 55.3814 47.4457 57.117 48.1078 58.7374C48.7699 60.3578 49.7433 61.8313 50.9723 63.0738C52.2013 64.3164 53.6619 65.3036 55.2707 65.979C56.8795 66.6545 58.605 67.0051 60.3486 67.0107C60.377 67.0108 60.4053 67.0108 60.4336 67.0107H73.8387C75.588 67.0107 77.3201 66.6646 78.9362 65.9921C80.5523 65.3197 82.0207 64.334 83.2576 63.0915C84.4945 61.849 85.4756 60.3739 86.1451 58.7505C86.8145 57.127 87.159 55.387 87.159 53.6298V40.2064H113.842C124.889 40.7176 134.256 32.1362 134.765 21.0394C135.274 9.94258 126.731 0.532468 115.685 0.021309C115.071 -0.007103 114.457 -0.007103 113.842 0.021309V13.4021C115.522 13.5367 117.09 14.3022 118.233 15.546C119.377 16.7899 120.012 18.4208 120.012 20.1139C120.012 21.8069 119.377 23.4378 118.233 24.6817C117.09 25.9255 115.522 26.691 113.842 26.8256H80.4989C79.6242 26.8256 78.7582 26.9986 77.9501 27.3349C77.1421 27.6711 76.4079 28.1639 75.7894 28.7851C75.171 29.4064 74.6804 30.144 74.3457 30.9557C74.011 31.7674 73.8387 32.6374 73.8387 33.516V53.6298H67.1362C65.3659 53.6186 63.672 52.9043 62.4241 51.6428C61.1763 50.3813 60.476 48.6752 60.476 46.8968V33.516C60.476 31.7416 59.7743 30.0399 58.5253 28.7852C57.2763 27.5305 55.5823 26.8256 53.8159 26.8256Z" fill="#00909A"/>
<path d="M110.191 43.104V46.8967C110.191 47.6299 110.408 48.3467 110.813 48.9564C111.219 49.5661 111.795 50.0413 112.47 50.3219C113.144 50.6025 113.886 50.6759 114.602 50.5329C115.318 50.3898 115.976 50.0367 116.492 49.5182C117.008 48.9997 117.359 48.3391 117.502 47.6199C117.644 46.9008 117.571 46.1553 117.292 45.4779C117.012 44.8004 116.539 44.2214 115.932 43.8141C115.326 43.4067 114.612 43.1892 113.882 43.1892L110.191 43.104Z" fill="#00909A"/>
<path d="M68.322 69.6101V73.2749C68.2665 73.7923 68.3201 74.3156 68.4792 74.8108C68.6384 75.3059 68.8995 75.7619 69.2456 76.1491C69.5917 76.5362 70.0151 76.8458 70.4882 77.0578C70.9612 77.2697 71.4734 77.3793 71.9914 77.3793C72.5094 77.3793 73.0216 77.2697 73.4947 77.0578C73.9678 76.8458 74.3911 76.5362 74.7373 76.1491C75.0834 75.7619 75.3445 75.3059 75.5036 74.8108C75.6627 74.3156 75.7163 73.7923 75.6609 73.2749C75.6609 72.303 75.2765 71.3708 74.5923 70.6835C73.9082 69.9962 72.9802 69.6101 72.0126 69.6101H68.322Z" fill="#00909A"/>
<path d="M58.3557 69.6101V73.2749C58.3473 74.0081 58.5556 74.7274 58.9541 75.3417C59.3526 75.956 59.9235 76.4378 60.5947 76.7262C61.2658 77.0146 62.007 77.0966 62.7245 76.9618C63.442 76.827 64.1036 76.4815 64.6256 75.969C65.1477 75.4565 65.5067 74.8 65.6573 74.0826C65.808 73.3651 65.7434 72.6188 65.4718 71.9382C65.2003 71.2576 64.7339 70.6732 64.1317 70.2588C63.5294 69.8444 62.8184 69.6188 62.0885 69.6103C62.0745 69.6102 62.0604 69.6101 62.0464 69.6101H58.3557Z" fill="#00909A"/>
<path d="M167.206 20.1353C167.201 21.9087 166.5 23.6084 165.255 24.8655C163.986 26.115 162.281 26.8182 160.504 26.8258H147.184C146.094 26.8222 145.021 27.0886 144.059 27.6016C143.097 28.1145 142.276 28.858 141.669 29.7661C140.925 30.8742 140.526 32.1797 140.523 33.5162V40.2066H167.206C170.739 40.2066 174.127 38.7968 176.625 36.2874C179.123 33.778 180.527 30.3746 180.527 26.8258V13.4023C180.515 9.85695 179.109 6.46001 176.613 3.95305C174.117 1.44609 170.736 0.032722 167.206 0.0214844H163.516C162.641 0.0214838 161.775 0.194536 160.967 0.53076C160.159 0.866985 159.425 1.3598 158.806 1.98106C158.188 2.60232 157.697 3.33987 157.363 4.15158C157.028 4.9633 156.856 5.8333 156.856 6.71189V13.4023H160.504C162.27 13.391 163.969 14.085 165.226 15.3316C166.483 16.5783 167.195 18.2755 167.206 20.0498C167.207 20.0783 167.207 20.1068 167.206 20.1353Z" fill="#00909A"/>
<path d="M3.03691 116.656H7.70325V115.42C7.70325 114.696 7.70325 114.312 6.6003 114.312H3.03691V110.349H9.52737V108.005H0.449219V122.665C0.449219 123.773 0.873431 123.815 1.55217 123.815H9.69705V121.471H3.03691L3.03691 116.656Z" fill="#00909A"/>
<path d="M16.1011 121.77C14.1921 121.77 13.6407 121.344 13.6407 118.148C13.6407 114.952 13.98 114.611 16.1859 114.611C17.0653 114.598 17.9359 114.787 18.7312 115.165L18.9857 112.906C18.1147 112.536 17.1736 112.361 16.2284 112.395C13.0043 112.395 11.2227 114.142 11.2227 118.105C11.2227 122.068 12.4953 123.943 15.4648 123.943C16.7192 123.976 17.9652 123.728 19.113 123.219L18.8585 121.258C17.9739 121.581 17.0421 121.754 16.1011 121.77Z" fill="#00909A"/>
<path d="M25.4348 112.395C22.2108 112.395 20.6836 114.142 20.6836 118.105C20.6836 122.068 22.1259 123.943 25.3924 123.943C28.6588 123.943 30.1435 122.494 30.1435 118.105C30.1435 113.716 28.9133 112.395 25.4348 112.395ZM25.4348 121.77C23.6531 121.77 23.144 121.343 23.144 118.147C23.144 114.951 23.3986 114.61 25.4348 114.61C27.471 114.61 27.7255 115.505 27.7255 118.147C27.7255 120.79 27.2165 121.77 25.3924 121.77L25.4348 121.77Z" fill="#00909A"/>
<path d="M37.4408 112.395C36.8184 112.346 36.1946 112.467 35.6348 112.745C35.0751 113.022 34.5999 113.446 34.2592 113.971C34.2592 112.778 34.2592 112.522 33.0714 112.522H32.2654V122.665C32.2654 123.773 32.6472 123.815 33.3683 123.815H34.641V116.826C34.641 115.25 34.9803 114.611 36.9741 114.611C38.9679 114.611 39.0952 114.951 39.0952 117.04V122.665C39.0952 123.773 39.477 123.815 40.1557 123.815H41.4708V117.38C41.4708 113.971 40.7496 112.395 37.4408 112.395Z" fill="#00909A"/>
<path d="M48.3449 112.395C45.1209 112.395 43.5938 114.142 43.5938 118.105C43.5938 122.068 45.0361 123.943 48.3449 123.943C51.6538 123.943 53.0537 122.494 53.0537 118.105C53.0537 113.716 51.8235 112.395 48.3449 112.395ZM48.3449 121.77C46.5208 121.77 46.0118 121.343 46.0118 118.147C46.0118 114.951 46.2663 114.61 48.3449 114.61C50.4236 114.61 50.6357 115.505 50.6357 118.147C50.6357 120.79 50.1266 121.77 48.3449 121.77Z" fill="#00909A"/>
<path d="M66.8377 112.395C66.2089 112.312 65.5696 112.408 64.9922 112.671C64.4149 112.935 63.9226 113.356 63.5713 113.886C63.0622 112.906 62.0865 112.395 60.2624 112.395C59.6559 112.331 59.044 112.446 58.5016 112.726C57.9592 113.006 57.5097 113.439 57.2081 113.971C57.2081 112.778 57.2081 112.522 56.0203 112.522H55.1719V122.665C55.1719 123.773 55.5537 123.815 56.2748 123.815H57.5899V116.827C57.5899 115.25 57.8868 114.611 59.7958 114.611C61.7048 114.611 61.7472 114.951 61.7472 117.04V122.665C61.7472 123.773 62.129 123.815 62.8501 123.815H64.0803V116.954C64.0803 115.292 64.3773 114.611 66.3287 114.611C68.28 114.611 68.28 114.952 68.28 117.04V122.665C68.28 123.773 68.6618 123.815 69.383 123.815H70.6556V117.381C70.698 113.971 70.1466 112.395 66.8377 112.395Z" fill="#00909A"/>
<path d="M77.0208 121.045L74.4331 112.522H71.9727L75.0694 122.153C75.4088 123.091 75.5785 123.517 76.2572 123.73C75.9603 124.753 75.4936 126.329 75.1543 127.736C75.4774 127.788 75.8068 127.788 76.1299 127.736C77.1905 127.736 77.4874 127.736 77.6995 126.585L78.4207 123.645L81.8144 112.395H79.4812L77.0208 121.045Z" fill="#00909A"/>
<path d="M93.7762 112.395C92.5598 112.438 91.3512 112.61 90.1704 112.906V115.079C91.2612 114.766 92.3874 114.594 93.5217 114.568C95.4306 114.568 95.6003 115.25 95.6427 117.295C95.0103 117.105 94.3513 117.018 93.6913 117.04C90.0431 117.04 89.4492 118.702 89.4492 120.577C89.4492 122.452 90.0007 123.901 93.055 123.901C95.2609 123.901 95.9397 123.304 96.1518 122.324C96.1518 123.389 96.1518 123.773 97.2547 123.773H98.0183V117.295C98.0183 113.545 97.0426 112.395 93.7762 112.395ZM95.6427 120.065C95.6427 121.259 95.2609 121.77 93.5641 121.77C91.8672 121.77 91.74 121.173 91.74 120.364C91.74 119.554 91.74 118.787 94.0307 118.787C94.5668 118.734 95.1067 118.734 95.6427 118.787L95.6427 120.065Z" fill="#00909A"/>
<path d="M105.823 112.395C105.2 112.342 104.575 112.461 104.014 112.739C103.454 113.016 102.979 113.443 102.642 113.971C102.642 112.778 102.642 112.522 101.454 112.522H100.605V122.665C100.605 123.773 100.987 123.815 101.708 123.815H103.023V116.826C103.023 115.25 103.363 114.61 105.357 114.61C107.35 114.61 107.435 114.951 107.435 117.039V122.665C107.435 123.773 107.817 123.815 108.538 123.815H109.853V117.38C109.853 113.971 109.132 112.395 105.823 112.395Z" fill="#00909A"/>
<path d="M120.164 107.92H118.849V112.949C118.213 112.555 117.474 112.362 116.728 112.395C113.292 112.395 111.977 114.142 111.977 118.105C111.977 122.068 113.249 123.943 116.431 123.943C116.97 124.012 117.517 123.929 118.011 123.703C118.506 123.477 118.928 123.118 119.231 122.665C119.231 123.474 119.443 123.815 120.418 123.815H121.224V109.028C121.224 107.92 120.843 107.92 120.164 107.92ZM116.643 121.77C114.861 121.77 114.395 121.344 114.395 118.148C114.395 114.951 114.607 114.611 116.643 114.611C118.679 114.611 118.891 115.505 118.891 118.148C118.891 120.79 118.679 121.77 116.643 121.77Z" fill="#00909A"/>
<path d="M140.441 108.005H129.242V110.349H133.484V122.665C133.484 123.773 133.866 123.815 134.587 123.815H136.199V110.349H140.441V108.005Z" fill="#00909A"/>
<path d="M144.681 112.395C141.457 112.395 139.93 114.142 139.93 118.105C139.93 122.068 141.372 123.943 144.638 123.943C147.905 123.943 149.39 122.494 149.39 118.105C149.39 113.716 148.244 112.395 144.681 112.395ZM144.681 121.77C142.899 121.77 142.39 121.343 142.39 118.147C142.39 114.951 142.645 114.61 144.681 114.61C146.717 114.61 146.972 115.505 146.972 118.147C146.972 120.79 146.547 121.77 144.681 121.77Z" fill="#00909A"/>
<path d="M158.046 119.596C158.046 121.088 157.706 121.77 156.222 121.77C154.737 121.77 153.973 121.77 153.973 119.682V112.522H151.598V119.341C151.598 122.963 152.573 124.071 155.628 124.071C156.207 124.152 156.797 124.037 157.304 123.744C157.811 123.451 158.207 122.996 158.427 122.452C158.427 123.56 158.427 123.943 159.615 123.943H160.464V112.522H158.046V119.596Z" fill="#00909A"/>
<path d="M165.002 114.014C165.002 112.821 165.002 112.522 163.814 112.522H163.008V122.665C163.008 123.773 163.39 123.815 164.068 123.815H165.383V117.253C165.383 115.122 165.935 114.611 167.547 114.611C168.098 114.581 168.65 114.581 169.201 114.611V112.48C168.709 112.413 168.209 112.413 167.717 112.48C167.164 112.442 166.614 112.568 166.131 112.84C165.649 113.113 165.256 113.521 165.002 114.014Z" fill="#00909A"/>
<path d="M172.128 108.133C171.954 108.103 171.776 108.116 171.608 108.17C171.44 108.223 171.288 108.317 171.163 108.442C171.038 108.567 170.945 108.721 170.892 108.889C170.838 109.058 170.826 109.237 170.856 109.412C170.856 110.264 171.195 110.69 172.128 110.69C173.061 110.69 173.443 110.264 173.443 109.412C173.443 108.559 173.061 108.133 172.128 108.133Z" fill="#00909A"/>
<path d="M172.299 112.522H170.984V122.665C170.984 123.773 171.366 123.815 172.087 123.815H173.402V113.673C173.402 112.565 172.978 112.522 172.299 112.522Z" fill="#00909A"/>
<path d="M180.02 117.295C178.28 116.784 178.026 116.571 178.026 115.804C178.026 115.037 178.323 114.611 179.85 114.611C180.713 114.598 181.573 114.728 182.395 114.994L182.65 112.906C181.779 112.536 180.838 112.361 179.892 112.395C177.093 112.395 175.65 113.46 175.65 115.932C175.65 117.679 175.65 118.361 178.832 119.17C180.529 119.639 180.826 119.81 180.826 120.619C180.826 121.429 180.317 121.77 178.959 121.77C177.795 121.833 176.64 121.536 175.65 120.917L175.184 122.963C176.188 123.699 177.423 124.047 178.662 123.943C181.547 123.943 183.286 122.835 183.286 120.534C183.286 118.233 182.862 118.105 180.02 117.295Z" fill="#00909A"/>
<path d="M196.478 112.395C195.85 112.312 195.21 112.408 194.633 112.671C194.056 112.935 193.563 113.356 193.212 113.886C192.703 112.906 191.727 112.395 189.903 112.395C189.297 112.331 188.685 112.446 188.142 112.726C187.6 113.006 187.15 113.439 186.849 113.971C186.849 112.778 186.849 112.522 185.661 112.522H184.812V122.665C184.812 123.773 185.194 123.815 185.915 123.815H187.103V116.827C187.103 115.25 187.4 114.611 189.309 114.611C191.218 114.611 191.261 114.951 191.261 117.04V122.665C191.261 123.773 191.642 123.815 192.363 123.815H193.636V116.954C193.636 115.292 193.933 114.611 195.884 114.611C197.836 114.611 197.836 114.952 197.836 117.04V122.665C197.836 123.773 198.218 123.815 198.939 123.815H200.211V117.381C200.339 113.971 199.83 112.395 196.478 112.395Z" fill="#00909A"/>
<path d="M5.70796 84.6956C5.68608 84.8725 5.70541 85.0521 5.76443 85.2202C5.82346 85.3883 5.92056 85.5403 6.04807 85.6643C6.17559 85.7883 6.33004 85.8808 6.49923 85.9345C6.66842 85.9883 6.84774 86.0018 7.02302 85.974C7.20149 85.9931 7.38196 85.9742 7.5527 85.9186C7.72344 85.8631 7.88064 85.7721 8.01409 85.6515C8.14754 85.5309 8.25425 85.3835 8.3273 85.2188C8.40035 85.0542 8.4381 84.8759 8.4381 84.6956C8.4381 84.5153 8.40035 84.337 8.3273 84.1723C8.25425 84.0077 8.14754 83.8602 8.01409 83.7397C7.88064 83.6191 7.72344 83.5281 7.5527 83.4725C7.38196 83.417 7.20149 83.3981 7.02302 83.4172C6.84929 83.3978 6.67346 83.4172 6.50806 83.474C6.34266 83.5308 6.19177 83.6236 6.06617 83.7457C5.94056 83.8678 5.84333 84.0162 5.78141 84.1804C5.71949 84.3446 5.69441 84.5205 5.70796 84.6956Z" fill="#00909A"/>
<path d="M2.78413 84.6955C2.78413 85.5478 3.16592 85.974 4.01434 85.974C4.86277 85.974 5.3294 85.5478 5.3294 84.6955C5.35129 84.5186 5.33195 84.3391 5.27293 84.171C5.21391 84.0028 5.11681 83.8508 4.98929 83.7268C4.86177 83.6029 4.70733 83.5104 4.53813 83.4566C4.36894 83.4029 4.18963 83.3894 4.01434 83.4171C3.84379 83.3949 3.67044 83.4131 3.50811 83.4701C3.34579 83.5272 3.199 83.6216 3.07947 83.7458C2.95995 83.87 2.87099 84.0206 2.81971 84.1855C2.76843 84.3504 2.75624 84.5251 2.78413 84.6955Z" fill="#00909A"/>
<path d="M34.3884 95.2637V93.133C30.9947 92.4086 30.1463 90.7892 27.4737 90.7892C26.4438 90.7849 25.4373 91.0972 24.5891 91.6841V93.7722C25.4173 93.3987 26.3116 93.1958 27.2192 93.1756C28.8615 93.4186 30.4441 93.9678 31.8855 94.795C31.3545 95.2363 30.7701 95.6086 30.1463 95.9029C28.1485 96.6747 25.9917 96.9382 23.8679 96.67H10.2507C8.46902 96.67 8.12965 96.3717 8.12965 95.2211V87.4653H7.0267C6.34796 87.4653 5.92375 87.4653 5.92375 88.5733V88.8716C3.0391 89.8517 0.621094 90.0648 0.621094 93.133C0.621094 94.7097 0.918042 96.7126 3.76027 96.7126C5.24501 96.7126 5.88133 96.2012 6.09343 95.1785C6.09343 98.2467 7.36607 98.9285 9.95377 98.9711H24.6315C27.0996 99.2124 29.5802 98.6603 31.7159 97.3944C32.6804 96.7827 33.5764 96.0684 34.3884 95.2637ZM6.09343 92.9625C6.09343 93.9427 5.79648 94.4114 4.31174 94.4114C2.827 94.4114 2.86942 94.4114 2.86942 92.9625C2.86942 91.5137 3.46332 91.6415 6.09343 90.9171V92.9625Z" fill="#00909A"/>
<path d="M61.9191 101.997C61.9191 101.23 61.5373 100.846 60.7313 100.846C60.4275 100.846 60.1362 100.967 59.9214 101.183C59.7066 101.399 59.5859 101.692 59.5859 101.997C59.5859 102.302 59.7066 102.595 59.9214 102.81C60.1362 103.026 60.4275 103.147 60.7313 103.147C61.5373 103.147 61.9191 102.764 61.9191 101.997Z" fill="#00909A"/>
<path d="M59.2439 101.997C59.2439 101.23 58.8621 100.846 58.0561 100.846C57.2501 100.846 56.9531 101.23 56.9531 101.997C56.9531 102.764 57.2925 103.147 58.0561 103.147C58.8197 103.147 59.2439 102.764 59.2439 101.997Z" fill="#00909A"/>
<path d="M81.0517 84.3545V95.349C81.0517 96.6274 80.076 96.67 78.8034 96.67C77.5307 96.67 76.8944 96.67 76.8944 95.0081V90.7467H74.6885V95.349C74.6885 96.5848 74.0946 96.5848 73.2886 96.5848C72.4826 96.5848 71.9735 96.2439 71.9735 94.5819V91.6416H69.8525V95.3916C69.8525 96.67 69.301 96.67 68.4102 96.67C67.5193 96.67 66.7557 96.67 66.7557 94.7098V91.6416H64.6347V95.5194C64.6347 96.67 64.1256 96.67 62.7681 96.67C61.4107 96.67 60.6895 96.67 60.6895 95.0081V90.7467H58.4412V95.2211C58.4412 96.5422 57.5503 96.5422 56.1928 96.5422H41.006C39.2668 96.5422 39.1819 96.0734 39.1819 94.8376V83.2466H38.0365C37.3154 83.2466 36.9336 83.2466 36.9336 84.3545V95.3916C36.9336 98.1615 38.2062 99.0138 40.7515 99.099H56.4049C57.0078 99.123 57.6067 98.9909 58.1442 98.7155C58.5745 98.3916 58.8993 97.9467 59.0775 97.4371C59.7562 98.7581 60.9864 99.099 62.7681 99.099C64.3801 99.099 64.9316 98.6303 65.271 97.4797C65.5679 98.7581 66.1194 99.1843 68.1132 99.1843C68.622 99.2682 69.1438 99.163 69.581 98.8885C70.0182 98.614 70.3409 98.189 70.4888 97.6928C70.7433 98.5877 71.5069 99.1843 73.0765 99.1843C73.6044 99.2579 74.1401 99.1206 74.5684 98.8019C74.9967 98.4832 75.2835 98.0085 75.3673 97.4797C75.9611 98.7581 77.1065 99.099 78.8458 99.099C79.4536 99.1378 80.0627 99.0446 80.6315 98.8259C81.2003 98.6071 81.7155 98.2678 82.1421 97.8312C82.5688 97.3945 82.8968 96.8707 83.1039 96.2953C83.311 95.7199 83.3924 95.1065 83.3424 94.4967V83.2466H82.1971C81.4759 83.2466 81.0517 83.2466 81.0517 84.3545Z" fill="#00909A"/>
<path d="M85.6328 84.3545V99.099H86.7782C87.4994 99.099 87.8811 99.099 87.8811 97.9911V83.2466H86.7358C86.057 83.2466 85.6328 83.2466 85.6328 84.3545Z" fill="#00909A"/>
<path d="M96.3231 90.7893C92.9294 90.7893 92.0809 93.4314 92.0809 95.3916C92.0809 97.3519 92.3355 99.1843 95.6443 99.1843C97.1715 99.1843 97.8078 98.7581 98.1048 98.1189C98.1048 100.718 97.426 100.931 95.008 100.931C94.1097 100.943 93.2173 100.784 92.3779 100.463L91.9961 102.934C92.9253 103.413 93.9652 103.634 95.008 103.574C98.9956 103.574 100.183 101.272 100.183 97.1814C100.183 93.0905 99.4198 90.7893 96.3231 90.7893ZM96.0685 96.7127C94.202 96.7127 94.2444 96.2439 94.2444 95.2212C94.2444 94.1984 94.2444 93.2609 96.111 93.2609C97.9775 93.2609 98.2744 94.7524 98.2744 96.2439C98.0199 96.5422 97.3412 96.7127 96.0685 96.7127Z" fill="#00909A"/>
<path d="M117.277 94.8803C117.277 92.1956 116.598 90.9172 112.356 88.4456L111.083 90.5336C114.731 92.6644 115.325 93.0905 115.325 94.7951C115.325 96.4996 114.859 96.457 112.228 96.457H109.344L109.047 98.9712C110.12 99.0448 111.197 99.0448 112.271 98.9712C115.834 99.0139 117.277 98.0337 117.277 94.8803Z" fill="#00909A"/>
<path d="M161.652 88.0196C161.614 88.3213 161.671 88.6273 161.813 88.8955C161.956 89.1637 162.178 89.3808 162.449 89.5168C162.719 89.6528 163.026 89.701 163.325 89.6547C163.624 89.6085 163.902 89.4701 164.119 89.2586C164.337 89.0471 164.483 88.773 164.539 88.4741C164.595 88.1753 164.557 87.8663 164.431 87.59C164.304 87.3137 164.096 87.0837 163.833 86.9316C163.571 86.7796 163.269 86.713 162.967 86.7411C162.793 86.7218 162.618 86.7412 162.452 86.798C162.287 86.8548 162.136 86.9475 162.01 87.0697C161.885 87.1918 161.787 87.3402 161.726 87.5044C161.664 87.6686 161.639 87.8445 161.652 88.0196Z" fill="#00909A"/>
<path d="M158.598 88.0193C158.597 88.3583 158.73 88.6838 158.968 88.9241C159.207 89.1644 159.53 89.2998 159.867 89.3006C160.205 89.3014 160.529 89.1674 160.768 88.9282C161.007 88.689 161.142 88.3641 161.143 88.0251V88.0193C161.142 87.6807 161.008 87.3563 160.769 87.1171C160.531 86.878 160.207 86.7437 159.87 86.7437C159.533 86.7437 159.21 86.878 158.971 87.1171C158.733 87.3563 158.598 87.6807 158.598 88.0193Z" fill="#00909A"/>
<path d="M176.455 93.7724V93.3463C176.455 89.0849 175.225 87.5082 172.552 87.5082C172.008 87.4916 171.466 87.5938 170.964 87.8075C170.463 88.0213 170.013 88.3416 169.646 88.7465C169.279 89.1514 169.004 89.6312 168.839 90.1531C168.675 90.6749 168.624 91.2264 168.692 91.7696C168.692 93.3037 168.692 95.2213 172.128 95.2213C173.486 95.2213 174.122 94.7526 174.377 94.1134C174.377 95.6048 174.377 96.2441 170.813 96.2441H164.535C163.177 96.2441 162.456 96.2441 162.456 94.6247V90.3633H160.208V94.8378C160.208 96.1588 159.317 96.1588 157.96 96.1588C157.385 96.2207 156.804 96.1477 156.263 95.9458C156.426 95.3204 156.498 94.6743 156.475 94.0281C156.475 90.3207 154.863 89.0423 152.233 89.0423C148.627 89.0423 147.397 91.5991 144.724 96.1588C144.003 96.1588 143.876 95.6048 143.876 94.2412V91.173H141.755V95.0082C141.755 96.1588 141.246 96.1588 139.888 96.1588H124.107C122.368 96.1588 122.283 95.7327 122.283 94.4969V83.0337H121.138C120.417 83.0337 120.035 83.0337 120.035 84.1843V95.2213C120.035 97.9486 121.308 98.8435 123.853 98.9288H140.44C141.924 98.9288 142.433 98.3748 142.773 97.2242C143.239 98.5026 144.173 98.9288 145.7 98.9288H151.851C152.541 99.005 153.24 98.9384 153.904 98.7332C154.568 98.528 155.183 98.1885 155.711 97.7356C155.711 98.5452 156.517 98.9288 158.172 98.9288C158.83 98.9668 159.487 98.8348 160.081 98.5452C160.511 98.2213 160.836 97.7764 161.014 97.2668C161.356 97.8464 161.86 98.3126 162.463 98.608C163.066 98.9033 163.742 99.0148 164.408 98.9288H170.601C174.377 98.9287 176.455 98.0339 176.455 93.7724ZM172.213 92.8776C170.601 92.8776 170.559 92.494 170.559 91.5991C170.559 90.7042 170.898 89.9798 172.383 89.9798C173.867 89.9798 174.292 90.9599 174.292 92.4088C174.08 92.8776 173.486 93.048 172.298 93.048L172.213 92.8776ZM151.851 96.2867H147.1C149.306 92.5366 150.027 91.5991 152.19 91.5991C153.59 91.5991 154.439 91.94 154.439 94.4543C154.439 96.3719 153.166 96.4571 151.936 96.4571L151.851 96.2867Z" fill="#00909A"/>
<path d="M172.809 85.2495C172.808 85.5886 172.941 85.914 173.179 86.1543C173.417 86.3946 173.741 86.53 174.078 86.5308C174.416 86.5316 174.74 86.3976 174.979 86.1584C175.218 85.9192 175.353 85.5943 175.354 85.2553V85.2495C175.353 84.9109 175.219 84.5865 174.98 84.3473C174.742 84.1082 174.418 83.9739 174.081 83.9739C173.744 83.9739 173.421 84.1082 173.182 84.3473C172.944 84.5865 172.809 84.9109 172.809 85.2495Z" fill="#00909A"/>
<path d="M169.836 85.2494C169.817 85.4317 169.836 85.6162 169.892 85.7907C169.948 85.9652 170.04 86.1259 170.162 86.2623C170.284 86.3988 170.433 86.5079 170.6 86.5825C170.767 86.6572 170.947 86.6958 171.13 86.6958C171.313 86.6958 171.493 86.6572 171.66 86.5825C171.827 86.5079 171.976 86.3988 172.098 86.2623C172.22 86.1259 172.312 85.9652 172.368 85.7907C172.424 85.6162 172.443 85.4317 172.424 85.2494C172.437 85.0743 172.412 84.8984 172.35 84.7342C172.288 84.57 172.191 84.4215 172.066 84.2994C171.94 84.1773 171.789 84.0846 171.624 84.0278C171.458 83.971 171.282 83.9516 171.109 83.9709C170.937 83.9504 170.762 83.9693 170.599 84.0263C170.435 84.0833 170.286 84.1768 170.164 84.2999C170.041 84.423 169.948 84.5724 169.891 84.7368C169.835 84.9013 169.816 85.0765 169.836 85.2494Z" fill="#00909A"/>
<path d="M177.684 86.4002C179.916 89.136 181.01 92.6321 180.738 96.1588C179.762 96.4571 178.787 96.7554 177.726 96.9685L178.405 99.2697C180.761 98.8536 183.029 98.0319 185.107 96.8407C185.574 98.3748 186.762 98.8862 188.756 98.9714H196.052C197.177 98.975 198.258 98.5295 199.056 97.7329C199.854 96.9363 200.304 95.8538 200.308 94.7237C200.308 94.6053 200.304 94.4871 200.294 94.3691V83.0337H199.149C198.428 83.0337 198.046 83.0337 198.046 84.1843V95.1361C198.046 96.4571 197.113 96.4571 195.797 96.4571H189.01C187.228 96.4571 187.186 96.031 187.186 94.7952V83.0337H186.041C185.319 83.0337 184.938 83.0337 184.938 84.1843V94.5395C184.248 94.8912 183.54 95.2042 182.817 95.477C182.947 91.6836 181.729 87.9675 179.38 84.9939L177.684 86.4002Z" fill="#00909A"/>
</g>
<defs>
<clipPath id="clip0_125_1145">
<rect width="200" height="127.778" fill="white" transform="translate(0.5)"/>
</clipPath>
</defs>
</svg>
