<svg width="170" height="149" viewBox="0 0 170 149" fill="none" xmlns="http://www.w3.org/2000/svg">
<path d="M34.6444 137.148L38.5519 127.049L42.4237 137.145L34.6444 137.148ZM41.6708 122.935C41.384 122.235 40.9649 121.689 40.3858 121.391C39.853 121.136 39.2693 121.006 38.6788 121.01C37.8487 121.01 37.038 121.176 36.4175 121.394C36.2749 121.456 36.1622 121.572 36.1031 121.716L25.9274 147.133C25.8924 147.219 25.879 147.312 25.8886 147.404C25.8981 147.496 25.9303 147.584 25.9822 147.66C26.0341 147.737 26.1041 147.799 26.1859 147.842C26.2678 147.885 26.359 147.907 26.4514 147.906H30.1742C30.4059 147.906 30.6099 147.768 30.6982 147.547L33.2766 141.011H43.8328L46.5022 147.555C46.5441 147.658 46.6154 147.746 46.7071 147.808C46.7989 147.871 46.907 147.904 47.0179 147.906H50.8317C50.9249 147.906 51.0168 147.883 51.0988 147.839C51.1808 147.795 51.2502 147.73 51.3005 147.652C51.3502 147.576 51.3802 147.489 51.3879 147.398C51.3956 147.308 51.3807 147.217 51.3446 147.133L41.6708 122.935ZM145.267 143.896H135.188V135.987H144.128C144.203 135.988 144.277 135.974 144.345 135.946C144.414 135.917 144.476 135.875 144.528 135.822C144.582 135.768 144.625 135.705 144.654 135.634C144.682 135.564 144.697 135.489 144.696 135.413V132.463C144.697 132.389 144.682 132.315 144.653 132.247C144.624 132.179 144.582 132.117 144.528 132.066C144.476 132.013 144.414 131.971 144.345 131.942C144.276 131.914 144.203 131.9 144.128 131.9H135.185V125.136H144.677C145.725 125.136 146.555 124.951 147.096 124.364C147.563 123.856 147.814 123.186 147.796 122.497V122.097C147.796 121.446 147.493 121.123 147.153 121.123H130.974C130.828 121.128 130.688 121.187 130.583 121.289C130.477 121.395 130.418 121.539 130.417 121.689V147.343C130.417 147.495 130.472 147.63 130.583 147.748C130.687 147.85 130.828 147.907 130.974 147.906H147.826C147.972 147.906 148.111 147.85 148.215 147.748C148.268 147.695 148.31 147.632 148.338 147.562C148.367 147.493 148.381 147.418 148.381 147.343V146.532C148.397 146.184 148.339 145.837 148.212 145.513C148.084 145.189 147.89 144.895 147.642 144.652C147.071 144.094 146.254 143.896 145.264 143.896M122.61 143.896H112.531V135.987H121.48C121.553 135.988 121.626 135.974 121.693 135.946C121.761 135.917 121.821 135.875 121.871 135.822C121.927 135.769 121.97 135.706 121.999 135.635C122.028 135.565 122.042 135.489 122.04 135.413V132.463C122.04 132.314 121.984 132.159 121.871 132.066C121.82 132.013 121.76 131.972 121.692 131.943C121.625 131.915 121.553 131.9 121.48 131.9H112.531V125.136H122.018C123.065 125.136 123.893 124.951 124.439 124.364C124.91 123.859 125.162 123.187 125.139 122.497V122.097C125.139 121.454 124.828 121.123 124.486 121.123H108.32C108.172 121.128 108.031 121.187 107.923 121.289C107.817 121.395 107.757 121.539 107.755 121.689V147.343C107.758 147.494 107.818 147.639 107.923 147.748C108.03 147.85 108.173 147.907 108.32 147.906H125.172C125.244 147.906 125.315 147.893 125.381 147.866C125.447 147.839 125.508 147.799 125.558 147.748C125.662 147.638 125.724 147.494 125.732 147.343V146.532C125.741 146.184 125.679 145.838 125.55 145.515C125.421 145.192 125.228 144.898 124.982 144.652C124.414 144.094 123.603 143.896 122.61 143.896ZM21.0961 121.551C20.8041 121.346 20.4754 121.2 20.1281 121.121C19.823 121.046 19.51 121.009 19.196 121.01C18.2612 121.01 17.6269 121.035 17.6269 121.7V140.452L5.07966 122.513C4.78923 122.042 4.38778 121.649 3.91042 121.369C3.42232 121.104 2.86252 121.01 2.18966 121.01C1.29066 121.01 0.609526 121.162 0.39443 121.228C0.278367 121.265 0.177289 121.338 0.106237 121.437C0.0351841 121.536 -0.00204576 121.655 8.676e-05 121.777V147.34C8.676e-05 147.495 0.0552396 147.63 0.154515 147.748C0.207529 147.8 0.270144 147.84 0.338764 147.867C0.407383 147.894 0.480656 147.907 0.554373 147.906H3.95179C4.09861 147.906 4.23994 147.85 4.34613 147.748C4.44665 147.637 4.50431 147.493 4.50883 147.343V129.195L17.7345 147.677C17.7887 147.748 17.8588 147.806 17.9392 147.846C18.0196 147.885 18.1081 147.906 18.1978 147.906H21.5897C21.7388 147.905 21.8824 147.849 21.9923 147.748C22.088 147.634 22.1441 147.492 22.1522 147.343V123.994C22.1522 123.423 22.064 122.927 21.8572 122.494C21.6881 122.119 21.4261 121.796 21.0961 121.551ZM76.2765 146.811L64.9701 133.569L75.452 122.858C75.5119 122.799 75.5574 122.727 75.5846 122.648C75.6119 122.568 75.6203 122.483 75.6091 122.4C75.6018 122.313 75.5746 122.229 75.5296 122.155C75.4847 122.08 75.4232 122.017 75.3499 121.97C74.804 121.683 74.2348 121.443 73.6485 121.253C73.3192 121.143 72.975 121.086 72.6281 121.082C72.1262 121.082 71.6464 121.192 71.2217 121.418C70.7915 121.631 70.3669 121.975 69.8898 122.428L60.0753 132.465V124.016C60.0753 123.409 59.9843 122.885 59.772 122.428C59.59 122.031 59.3089 121.688 58.9557 121.432C58.6477 121.215 58.3015 121.058 57.9354 120.969C57.6158 120.897 57.2895 120.86 56.962 120.859C55.9637 120.859 55.3019 120.889 55.3019 121.589V147.343C55.3003 147.418 55.314 147.492 55.3421 147.561C55.3702 147.631 55.412 147.694 55.4652 147.746C55.5183 147.799 55.5816 147.84 55.6512 147.867C55.7208 147.895 55.7952 147.908 55.8699 147.906H59.51C59.5833 147.907 59.6562 147.894 59.7244 147.867C59.7926 147.84 59.8547 147.8 59.9071 147.748C60.0092 147.637 60.0688 147.494 60.0753 147.343V134.953L70.0277 146.604C70.4799 147.139 70.9818 147.536 71.5168 147.817C72.0821 148.093 72.7632 148.217 73.5519 148.217C74.5309 148.217 75.6836 147.864 76.0448 147.721C76.1323 147.69 76.2103 147.637 76.2712 147.567C76.3321 147.497 76.3738 147.412 76.3923 147.321C76.4155 147.233 76.4171 147.14 76.397 147.052C76.3768 146.963 76.3355 146.88 76.2765 146.811ZM102.692 124.016C102.692 123.409 102.601 122.885 102.389 122.428C102.209 122.031 101.93 121.688 101.578 121.432C101.267 121.216 100.919 121.059 100.552 120.969C100.232 120.898 99.9061 120.861 99.5786 120.859C98.5886 120.859 97.924 120.889 97.924 121.589V131.966H85.7187V124.016C85.7187 123.409 85.6359 122.885 85.4208 122.428C85.2383 122.035 84.9617 121.693 84.6156 121.432C84.3023 121.216 83.9517 121.059 83.5815 120.969C83.2647 120.897 82.9411 120.86 82.6163 120.859C81.6236 120.859 80.9562 120.889 80.9562 121.589V147.343C80.9562 147.495 81.0114 147.63 81.1217 147.748C81.2255 147.848 81.3637 147.904 81.5077 147.906H85.1616C85.2333 147.907 85.3045 147.894 85.3708 147.867C85.4372 147.84 85.4974 147.799 85.5477 147.748C85.6534 147.639 85.7144 147.495 85.7187 147.343V136.023H97.924V147.343C97.924 147.495 97.9819 147.63 98.0784 147.748C98.1887 147.853 98.3404 147.906 98.481 147.906H102.129C102.201 147.907 102.273 147.893 102.34 147.866C102.406 147.839 102.467 147.799 102.518 147.748C102.573 147.696 102.616 147.633 102.646 147.563C102.676 147.494 102.692 147.419 102.692 147.343V124.016ZM169.303 144.616C168.729 144.067 167.93 143.855 166.964 143.855H157.809V123.983C157.809 123.376 157.721 122.852 157.5 122.4C157.325 121.999 157.044 121.653 156.687 121.399C156.381 121.18 156.035 121.024 155.669 120.939C155.348 120.866 155.019 120.829 154.69 120.825C153.7 120.825 153.03 120.853 153.03 121.556V147.34C153.03 147.495 153.104 147.644 153.201 147.748C153.31 147.851 153.454 147.907 153.604 147.906H169.438C169.587 147.907 169.73 147.851 169.838 147.748C169.938 147.637 169.995 147.493 169.998 147.343V146.461C170.012 146.122 169.958 145.784 169.839 145.467C169.719 145.15 169.537 144.861 169.303 144.616ZM81.2871 64.4841C81.2981 64.4896 81.2981 64.5007 81.3064 64.5007C81.3202 64.5007 81.3202 64.4924 81.3285 64.4869M100.307 33.1739C93.7351 31.2711 92.4887 35.5868 91.5869 38.7388C91.5869 38.7388 91.5814 38.7498 91.5869 38.7526C91.5869 38.7581 91.5924 38.7609 91.6007 38.7609C99.2035 38.7526 94.7996 33.2731 100.298 33.2042H100.307C100.315 33.2042 100.315 33.1932 100.315 33.1877C100.323 33.1766 100.315 33.1739 100.307 33.1739ZM89.8468 12.6763C89.8468 12.6625 89.8331 12.6625 89.822 12.6708C89.8137 12.6708 89.8055 12.6846 89.8138 12.6929V12.7039C94.5045 24.0874 77.8042 28.6789 67.3528 33.1739H67.3445C52.9854 38.5844 41.5991 51.8072 40.6229 67.7354C40.291 76.9538 43.1227 86.0085 48.6477 93.3952C48.6559 93.4035 48.6614 93.4035 48.6725 93.4007C48.6835 93.398 48.689 93.3814 48.6835 93.3677C44.5487 86.9797 42.4815 79.4733 42.7629 71.8691C43.3557 54.8241 53.2915 43.2034 73.1796 36.1687C87.2078 31.2077 93.7848 28.3976 94.0219 21.9144C94.1488 18.153 90.4618 13.4347 89.8468 12.6763ZM93.2112 91.2525L93.2029 91.2388C93.1946 91.236 93.1836 91.2388 93.1753 91.2443V91.2525C90.2026 96.0757 82.7238 97.5041 77.5615 94.2225H77.534C77.5312 94.2308 77.5257 94.2446 77.5312 94.2501C82.062 103.86 93.9612 97.9316 93.2112 91.2525Z" fill="#044F92"/>
<path d="M82.3616 4.59922C82.3533 4.59095 82.3451 4.59095 82.3368 4.59922C82.3345 4.60073 82.3326 4.60278 82.3314 4.60519C82.3301 4.60759 82.3294 4.61028 82.3294 4.61301C82.3294 4.61574 82.3301 4.61843 82.3314 4.62083C82.3326 4.62324 82.3345 4.62529 82.3368 4.6268C90.8827 15.1058 67.2497 28.0116 59.6386 34.1336C59.6304 34.1419 59.6304 34.1556 59.6304 34.1612C59.6386 34.175 59.6579 34.175 59.6662 34.175C60.6121 33.7558 68.2232 29.7021 75.2028 26.7017C79.1048 25.0471 87.4081 20.7011 87.5046 13.8346C88.1223 9.24585 83.2606 5.28312 82.3616 4.59922Z" fill="#044F92"/>
<path d="M74.9946 0.318425C74.9863 0.307395 74.978 0.315668 74.978 0.321183C74.9697 0.323941 74.9697 0.332214 74.978 0.343244C82.1231 10.3535 70.0473 21.566 67.9764 23.4192C67.9764 23.4192 67.9543 23.4412 67.9764 23.4605C67.9819 23.4743 68.0012 23.4743 68.0095 23.4605C69.0022 22.7794 69.9729 22.0762 70.9243 21.3923C84.0507 11.8233 82.1507 3.49523 74.9946 0.318425ZM110.789 48.2297C104.226 46.3269 102.971 50.6481 102.072 53.7918V53.8084C102.072 53.8167 102.08 53.8194 102.088 53.8194C109.688 53.8084 105.279 48.3345 110.789 48.26V48.2628C110.797 48.2628 110.803 48.26 110.803 48.249C110.803 48.2435 110.797 48.2297 110.789 48.2297Z" fill="#044F92"/>
<path d="M118.699 84.5094C118.694 84.5011 118.677 84.5094 118.677 84.5122C111.196 96.2598 97.5094 104.376 80.172 103.03C64.8202 101.852 51.1615 89.0457 51.5145 72.9163C51.7627 61.4031 56.208 56.0367 59.1642 53.6127C57.7137 56.4503 51.5945 71.8821 61.9467 83.0479C69.1469 90.8106 81.0076 90.0716 86.6939 85.8165H86.6994C89.3302 86.7073 91.9747 87.245 95.044 87.3608C107.211 87.78 117.116 80.8859 117.436 71.9676C117.792 61.6871 107.589 54.815 95.3253 54.3849C93.1777 54.3064 91.0279 54.4533 88.911 54.8233C93.1798 45.2102 102.073 44.4573 104.676 44.6476C113.575 45.2846 117.353 51.1032 118.454 53.257V53.2652C118.462 53.279 118.47 53.2818 118.481 53.279C118.498 53.2708 118.498 53.257 118.498 53.2487C115.765 46.3987 108.998 41.4129 100.918 41.1288C90.1437 40.7565 81.1124 48.8778 80.7539 59.2742C80.6877 61.0804 80.8918 62.8315 81.3192 64.4999C81.3192 64.5137 81.3275 64.5165 81.333 64.5192C81.3495 64.5192 81.355 64.5137 81.355 64.5027C81.6463 64.0543 81.9611 63.6216 82.2982 63.2066C85.0861 59.9525 89.73 58.0691 94.9227 58.2483C103.16 58.5379 110.153 64.158 109.908 71.0934C109.668 78.0317 102.283 83.4119 94.0485 83.1196C83.9583 82.7693 74.7587 73.2003 75.1007 63.3334C75.1852 60.9668 75.6875 58.6338 76.5843 56.4421C76.5926 56.4338 76.5843 56.4283 76.5788 56.42C76.5705 56.42 76.5622 56.42 76.5567 56.4283C73.5371 59.4672 71.6895 63.2535 71.5488 67.412C71.3365 73.3878 75.7846 80.5853 83.0455 84.286C76.8435 86.9113 60.987 81.6663 61.5689 65.0184C61.9825 53.2018 69.1524 42.0554 79.1627 39.7583C79.171 39.7583 79.1765 39.7445 79.1765 39.7362C79.1765 39.7279 79.1599 39.7169 79.1544 39.7224C58.4583 43.2439 46.3549 56.318 45.7262 74.0496C45.0782 92.7107 60.7416 109.011 79.7501 109.678C103.096 110.486 114.819 94.5776 118.707 84.537H118.716C118.716 84.5232 118.716 84.5149 118.699 84.5094Z" fill="#044F92"/>
</svg>
