<svg width="41" height="38" viewBox="0 0 41 38" fill="none" xmlns="http://www.w3.org/2000/svg">
<path d="M21.3299 31.5831C20.6884 31.2579 19.9332 31.2579 19.2917 31.5831L11.0697 35.7503C9.32831 36.6328 7.36764 35.0385 7.83982 33.124L9.76231 25.3289C9.94613 24.5836 9.75237 23.7945 9.24538 23.2234L2.8991 16.0756C1.63409 14.6509 2.53269 12.3743 4.41812 12.2273L13.2713 11.537C14.0995 11.4724 14.8274 10.9562 15.1711 10.1897L18.2363 3.35407C19.0459 1.54865 21.5757 1.54864 22.3853 3.35406L25.4505 10.1897C25.7942 10.9562 26.5221 11.4724 27.3503 11.537L36.2035 12.2273C38.0889 12.3743 38.9875 14.6509 37.7225 16.0756L31.3762 23.2234C30.8692 23.7945 30.6755 24.5836 30.8593 25.3289L32.7818 33.124C33.2539 35.0385 31.2933 36.6328 29.5519 35.7503L21.3299 31.5831Z" stroke="white" stroke-width="3.5" stroke-linecap="round" stroke-linejoin="round"/>
</svg>
