<?xml version="1.0" encoding="UTF-8"?>
<svg id="Layer_1" xmlns="http://www.w3.org/2000/svg" version="1.1" viewBox="0 0 1080 1080">
  <!-- Generator: Adobe Illustrator 29.1.0, SVG Export Plug-In . SVG Version: 2.1.0 Build 142)  -->
  <defs>
    <style>
      .st0 {
        fill: #fff;
      }
    </style>
  </defs>
  <path class="st0" d="M204,403.11c11.83-81.64,96.1-132.58,167.35-158.18,108.6-39.02,230.32-38.42,338.62,1.31,74.6,27.37,178.76,92.81,163.06,185.98-12.92,76.66-93.4,47.71-148.31,52.09-30.84-4.69-50.83-31.1-47.82-62.2.36-3.74,5.82-20.53,5.13-21.5-11.72-4.53-23.06-10.01-34.94-14.21-74.48-26.33-146.59-26.32-220.72,1.31-6.27,2.34-23.15,8.29-27.71,11.62-1.22.89-1.94,1.01-1.86,2.82.21,4.91,4.22,13.11,4.86,18.77,3.62,32.02-18.46,60.04-50.45,63.23-23.22,2.32-65.34,1.85-88.97.21-35.75-2.48-55.03-27.14-58.24-61.62v-19.65.02ZM721.01,377.32c15.75,18.46-19.78,56.33,5.13,66.27,2.51,1,3.65,1.25,6.35,1.51,18.3,1.77,67.45,2.22,85.1-.18,23.34-3.17,17.55-42.8,11.49-58.41-32.49-83.69-184.57-126.41-265.45-130.16-94.37-4.37-256.13,28.19-307.79,116.74-10.99,18.84-20.79,56.91,1.48,70.36l94.77-.31c4.45-1.37,9.74-8.95,10.12-13.48.77-9.1-8.73-28.19-8.98-39-.42-17.9,24.59-26.26,38.51-32.32,92.41-40.21,184.84-41.56,278.92-5.99,10.52,3.98,43.97,17.49,50.35,24.97h0Z"/>
  <path class="st0" d="M507.91,498.74h62.88v-26.85c0-.44,1.92-7.14,2.33-8.15,5.24-12.9,21.82-16.25,32.04-6.94,1.11,1.01,6.24,9.27,6.24,9.85v32.09h45.19c1.43,0,10.77,6.8,12.5,8.46,42.42,40.56,95.21,97.06,116.56,151.98,20.02,51.51,23.47,123.21,19.68,178.24-.74,10.79-2.82,19.81-13.75,24.24-165.71,2.93-331.97.36-497.89,1.3-14.46-1.36-19.25-10.87-20.3-24.24-4.32-55-.04-130.08,20.37-181.45,21.36-53.74,74.15-110.2,115.85-150.07,1.73-1.66,11.07-8.46,12.5-8.46h45.19v-32.09c0-.58,5.13-8.84,6.24-9.85,10.22-9.31,26.8-5.96,32.04,6.94.41,1.01,2.33,7.71,2.33,8.15v26.85h0ZM764.65,822.29c.68-52.73,2.62-102.4-17.71-151.93-21.74-52.96-64.04-88.95-102.08-129.78l-5.23-1.32h-200.58l-5.89,1.97c-37.48,40.37-79.44,76-101.02,128.22-20.6,49.83-18.89,99.77-18.1,152.84h450.62,0Z"/>
  <path class="st0" d="M531.22,580.35c83.14-6.92,140.55,83.99,99.06,156.7-37.01,64.86-129.51,70.73-174.55,11.01-49.89-66.15-6.36-160.9,75.49-167.71ZM528.55,620.9c-20.45,2.77-40.97,20.17-48.78,38.99-26.13,62.94,51.24,118.31,102.18,73.36,48.48-42.77,11.41-121.12-53.4-112.35Z"/>
</svg>