<svg viewBox="535.613048368954 82.08 866.0517435320585 920.16" version="1.1" xmlns="http://www.w3.org/2000/svg" id="Layer_1" style="max-height: 500px" width="866.0517435320585" height="920.16">
  
  <defs>
    <style>
      .st0 {
        fill: #fff;
      }
    </style>
  </defs>
  <g>
    <path d="M684.73,910.85h-75.34v22.07h42.08c-2.6,7.12-7.46,12.82-14.57,17.09-7.12,4.28-15.12,6.42-24.02,6.42-11.77,0-21.62-3.68-29.56-11.04-7.8-7.48-11.7-16.64-11.7-27.5s4.11-19.96,12.32-27.32c8.21-7.35,18.47-11.03,30.79-11.03,8.07,0,15.46,1.69,22.17,5.07,6.7,3.38,11.83,8.02,15.4,13.93l28.33-9.23c-5.89-10.61-14.78-19.05-26.69-25.33-11.77-6.15-24.84-9.23-39.21-9.23-20.94,0-38.46,6.03-52.55,18.09-14.1,12.06-21.14,27.13-21.14,45.22s6.91,32.86,20.73,45.04c13.82,12.06,31,18.09,51.52,18.09s37.49-6.09,51.32-18.27c13.55-11.94,20.46-27.13,20.73-45.59,0-.48-.1-1.54-.31-3.16s-.31-2.74-.31-3.35Z" class="st0"/>
    <polygon points="727.84 931.47 790.24 931.47 790.24 907.78 727.84 907.78 727.84 882.99 801.33 882.99 801.33 859.12 698.48 859.12 698.48 981.22 802.35 981.22 802.35 957.52 727.84 957.52 727.84 931.47" class="st0"/>
    <polygon points="909.5 936.9 840.53 859.12 814.46 859.12 814.46 981.22 842.58 981.22 842.58 903.43 911.76 981.22 937.62 981.22 937.62 859.12 909.5 859.12 909.5 936.9" class="st0"/>
    <path d="M1045.39,929.66c0,7.96-3.01,14.59-9.03,19.9-6.02,5.31-13.62,7.96-22.79,7.96s-16.56-2.65-22.58-7.96c-6.02-5.31-9.03-11.94-9.03-19.9v-72.72h-29.35v72.72c0,14.59,5.82,26.84,17.45,36.72,11.63,9.89,26.14,14.83,43.52,14.83s31.88-4.94,43.52-14.83c11.77-10.01,17.65-22.25,17.65-36.72v-72.72h-29.35v72.72Z" class="st0"/>
    <rect height="122.11" width="29.35" y="859.12" x="1089.73" class="st0"/>
    <polygon points="1163.63 936.9 1163.63 859.12 1135.51 859.12 1135.51 981.22 1161.37 981.22 1230.55 903.43 1230.55 981.22 1258.67 981.22 1258.67 859.12 1232.6 859.12 1163.63 936.9" class="st0"/>
    <polygon points="1304.45 957.52 1304.45 931.47 1366.85 931.47 1366.85 907.78 1304.45 907.78 1304.45 882.99 1377.93 882.99 1377.93 859.12 1275.09 859.12 1275.09 981.22 1378.96 981.22 1378.96 957.52 1304.45 957.52" class="st0"/>
  </g>
  <g>
    <path d="M754.87,570.46v-70.71c0-5.11,5.53-8.31,9.96-5.76l9.08,5.22c-.15,1.89-.25,3.79-.25,5.71,0,39.23,31.8,71.02,71.02,71.02s71.02-31.8,71.02-71.02-31.8-71.02-71.02-71.02c-9.2,0-17.98,1.77-26.05,4.95l-120.15-66.89c-4.43-2.47-9.88.72-9.88,5.79-.03,38.91-.14,166.17-.16,189.14,0,2.24,1.12,4.31,2.99,5.54l52.85,34.83c4.4,2.9,10.26-.22,10.31-5.49l.28-31.31ZM844.69,471.79c18.3,0,33.13,14.83,33.13,33.13s-14.83,33.13-33.13,33.13-33.13-14.83-33.13-33.13,14.83-33.13,33.13-33.13Z" class="st0"/>
    <path d="M1253.48,572.43c1.87-1.23,2.99-3.31,2.99-5.54-.02-22.97-.12-150.23-.16-189.14,0-5.07-5.45-8.26-9.88-5.79l-120.11,66.87c-8.06-3.17-16.82-4.93-26-4.93-39.23,0-71.02,31.8-71.02,71.02s31.8,71.02,71.02,71.02,71.02-31.8,71.02-71.02c0-1.94-.1-3.86-.25-5.76l9-5.17c4.43-2.55,9.96.65,9.96,5.76v70.71l.28,31.31c.05,5.27,5.91,8.39,10.31,5.49l52.85-34.83ZM1100.32,538.04c-18.3,0-33.13-14.83-33.13-33.13s14.83-33.13,33.13-33.13,33.13,14.83,33.13,33.13-14.83,33.13-33.13,33.13Z" class="st0"/>
    <path d="M1115.88,593.76l-98.17,61.06c-4.43,2.75-10.16-.43-10.16-5.64v-205.28c0-2.37,1.26-4.56,3.32-5.75l241.47-139.88c2.05-1.19,3.32-3.38,3.32-5.75v-29.45c0-2.37-1.26-4.56-3.31-5.75l-267.38-155.16c-7.74-4.49-17.29-4.49-25.02,0l-267.38,155.16c-2.05,1.19-3.31,3.38-3.31,5.75v29.45c0,2.37,1.26,4.56,3.32,5.75l241.48,139.88c2.05,1.19,3.32,3.38,3.32,5.75v205.28c0,5.21-5.73,8.4-10.16,5.64l-98.16-61.06c-4.43-2.75-10.16.43-10.16,5.64v44.97c0,2.26,1.15,4.37,3.06,5.6l119.13,76.37c19.13,12.26,43.65,12.26,62.78,0l119.13-76.37c1.91-1.22,3.06-3.33,3.06-5.6v-44.97c0-5.21-5.73-8.4-10.16-5.64ZM853.02,308.77c-2.07,1.17-4.6,1.15-6.64-.06l-44.07-25.9c-4.37-2.57-4.37-8.88,0-11.46l156.56-92.29c8.39-4.95,18.8-4.95,27.19,0l156.56,92.29c4.37,2.57,4.36,8.89,0,11.46l-44.07,25.9c-2.04,1.2-4.57,1.22-6.64.06l-116.17-65.65c-2.03-1.15-4.51-1.15-6.54,0l-116.17,65.65ZM928.83,343.56l40.08-25.34c2.17-1.37,4.94-1.37,7.1,0l40.08,25.34c4.13,2.61,4.13,8.63,0,11.24l-40.08,25.35c-2.17,1.37-4.94,1.37-7.11,0l-40.08-25.35c-4.13-2.61-4.13-8.63,0-11.24Z" class="st0"/>
  </g>
  <g>
    <path d="M897.28,777.92h-19.17v-11.77h51.01v11.77h-19.17v48.42h-12.66v-48.42Z" class="st0"/>
    <path d="M961.46,826.34h-12.75v-60.19h12.75v23.9h27.56v-23.9h12.66v60.19h-12.66v-24.52h-27.56v24.52Z" class="st0"/>
    <path d="M1021.27,766.14h44.68v11.77h-31.92v12.22h27.11v11.68h-27.11v12.84h32.37v11.68h-45.12v-60.19Z" class="st0"/>
  </g>
</svg>