<?xml version="1.0" encoding="UTF-8"?>
<svg id="Layer_1" xmlns="http://www.w3.org/2000/svg" version="1.1" viewBox="0 0 1080 1080">
  <!-- Generator: Adobe Illustrator 29.1.0, SVG Export Plug-In . SVG Version: 2.1.0 Build 142)  -->
  <defs>
    <style>
      .st0 {
        fill: #4c29b5;
      }
    </style>
  </defs>
  <path class="st0" d="M792.01,287.95c12.55,12.56,11.41,29.96,10.3,46.46-6.28,93.36-51.97,186.95-113.38,255.94,8.29,22.95,19.03,48.63,16.25,73.59-3.32,29.88-47.93,78.97-68.77,101.01-7.29,7.71-30.87,33.08-38.85,36.12-13.61,5.18-27.02-.73-33.59-13.33l-26.23-79.63c-25.22,10.82-47.03,32.73-73.9,11.08-35.37-28.48-67.34-72.59-102.54-102.52-22.74-27.66.07-49.37,11.05-75.54l-83.06-26.64c-10.89-7.8-15.25-20.22-10.09-32.88,3.02-7.4,28.92-31.62,36.34-38.63,22.67-21.4,71.51-65.89,102.52-68.36,24.49-1.96,49.02,8.24,71.55,16.41,69.09-61.57,162.42-107.01,255.94-113.38,16.08-1.09,34.19-1.97,46.46,10.3ZM759.1,308.83c-157.15,5.8-285.48,114.8-358.27,246.99-4.55,8.26-14.02,23.71-16.59,31.91-.59,1.87-1.45,3.46-.68,5.52l102.37,102.77c2.26,1.33,4.11.38,6.29-.3,11.85-3.69,36.36-18.9,48.04-25.82,103.28-61.18,187.81-153.45,218.75-271.86,5.92-22.66,13.19-58.21,12.54-81.27-.25-9.04-5.45-8.2-12.46-7.94ZM313.92,490.41l74.96,22.68c22.2-34.42,46.32-67.71,74.95-97.09-12.59-5.59-31.84-11.89-45.59-9.23-26.79,5.18-80.42,59.53-100.99,79.86-1.63,1.61-4.09.91-3.33,3.78ZM591.73,766.02c6.77-10.21,17.44-18.42,25.94-27.54,13.49-14.46,53.11-58.82,55.56-76.73,2-14.64-3.22-32.38-9.27-45.63-29.38,28.64-62.66,52.75-97.09,74.95l22.67,74.28,2.18.67Z"/>
  <path class="st0" d="M331.57,748.39c23.26-2.76,45.34-8.41,66.89-17.44,11.2-4.7,24.83-17.28,35.11-3.52,13.45,18.01-11.95,28.04-24.86,33.61-26.19,11.29-62.38,19.77-90.9,20.51-9.89.26-18.51-5.93-19.33-16.07-.33-4.16.71-13,1.12-17.62,2.28-25.16,9.49-54.27,19.65-77.37,5.34-12.15,14.26-35.11,31.47-25.57,16.66,9.24,3.01,25.38-1.7,36.59-9.04,21.55-14.68,43.62-17.44,66.89Z"/>
  <path class="st0" d="M627.91,378.28c92.45-9.52,99.45,124.55,15.09,131.96-87.68,7.7-100.09-123.2-15.09-131.96ZM631.17,409.12c-43.23,5.63-37.59,74.31,9.52,69.05,44.91-5.02,37.21-75.13-9.52-69.05Z"/>
</svg>